0
SECTION
2
HEADER
9
$INSUNITS
70
4
9
$ACADVER
1
AC1014
9
$HANDSEED
5
FFFF
0
ENDSEC
0
SECTION
2
TABLES
0
TABLE
2
VPORT
5
8
100
AcDbSymbolTable
0
ENDTAB
0
TABLE
2
LTYPE
5
5
100
AcDbSymbolTable
0
LTYPE
5
14
100
AcDbSymbolTableRecord
100
AcDbLinetypeTableRecord
2
BYBLOCK
70
0
0
LTYPE
5
15
100
AcDbSymbolTableRecord
100
AcDbLinetypeTableRecord
2
BYLAYER
70
0
0
ENDTAB
0
TABLE
2
LAYER
5
2
100
AcDbSymbolTable
70
2
0
LAYER
5
50
100
AcDbSymbolTableRecord
100
AcDbLayerTableRecord
2
0
70
0
6
CONTINUOUS
0
ENDTAB
0
TABLE
2
STYLE
5
3
100
AcDbSymbolTable
70
1
0
STYLE
5
11
100
AcDbSymbolTableRecord
100
AcDbTextStyleTableRecord
2
STANDARD
70
0
0
ENDTAB
0
TABLE
2
VIEW
5
6
100
AcDbSymbolTable
70
0
0
ENDTAB
0
TABLE
2
UCS
5
7
100
AcDbSymbolTable
70
0
0
ENDTAB
0
TABLE
2
APPID
5
9
100
AcDbSymbolTable
70
2
0
APPID
5
12
100
AcDbSymbolTableRecord
100
AcDbRegAppTableRecord
2
ACAD
70
0
0
ENDTAB
0
TABLE
2
DIMSTYLE
5
A
100
AcDbSymbolTable
70
1
0
ENDTAB
0
TABLE
2
BLOCK_RECORD
5
1
100
AcDbSymbolTable
70
1
0
BLOCK_RECORD
5
1F
100
AcDbSymbolTableRecord
100
AcDbBlockTableRecord
2
*MODEL_SPACE
0
BLOCK_RECORD
5
1B
100
AcDbSymbolTableRecord
100
AcDbBlockTableRecord
2
*PAPER_SPACE
0
ENDTAB
0
ENDSEC
0
SECTION
2
BLOCKS
0
BLOCK
5
20
100
AcDbEntity
100
AcDbBlockBegin
2
*MODEL_SPACE
0
ENDBLK
5
21
100
AcDbEntity
100
AcDbBlockEnd
0
BLOCK
5
1C
100
AcDbEntity
100
AcDbBlockBegin
2
*PAPER_SPACE
0
ENDBLK
5
1D
100
AcDbEntity
100
AcDbBlockEnd
0
ENDSEC
0
SECTION
2
ENTITIES
0
CIRCLE
5
100
100
AcDbEntity
8
0
100
AcDbCircle
10
-13.54999999999983
20
15.550000000001045
30
0
40
1.5500000000000003
210
0
220
-0
230
1
0
CIRCLE
5
101
100
AcDbEntity
8
0
100
AcDbCircle
10
48.242017824438349
20
73.171842651988811
30
0
40
1.5500000000000114
210
0
220
-0
230
1
0
CIRCLE
5
102
100
AcDbEntity
8
0
100
AcDbCircle
10
76.043887824438329
20
61.17184265198911
30
0
40
1.5500000000000114
210
0
220
-0
230
1
0
LWPOLYLINE
5
103
100
AcDbEntity
8
0
100
AcDbPolyline
90
8
70
1
43
0.0
10
94.789999999996525
20
-89.390000000000086
42
-0.41421356237308737
10
91.389999999996547
20
-92.789999999999992
10
-91.389999999998111
20
-92.789999999999978
42
-0.41421356237309198
10
-94.789999999998088
20
-89.390000000000043
10
-94.789999999999935
20
89.389999999999958
42
-0.41421356237309659
10
-91.389999999999944
20
92.789999999999978
10
91.389999999999944
20
92.79000000000002
42
-0.41421356237310114
10
94.789999999999935
20
89.389999999999944
0
LWPOLYLINE
5
104
100
AcDbEntity
8
0
100
AcDbPolyline
90
4
70
1
43
0.0
10
15.166666666665797
20
89.000000000000057
10
-15.166666666667446
20
89.000000000000085
10
-15.166666666667489
20
85.200000000000088
10
15.166666666665844
20
85.200000000000117
0
LWPOLYLINE
5
105
100
AcDbEntity
8
0
100
AcDbPolyline
90
4
70
1
43
0.0
10
90.99999999999973
20
11.866666666666719
10
90.999999999999744
20
47.466666666666725
10
87.199999999999861
20
47.466666666666754
10
87.199999999999719
20
11.866666666666728
0
LWPOLYLINE
5
106
100
AcDbEntity
8
0
100
AcDbPolyline
90
4
70
1
43
0.0
10
-91.000000000000995
20
-47.466666666665667
10
-87.200000000000898
20
-47.466666666665716
10
-87.200000000000472
20
-11.866666666665679
10
-91.00000000000054
20
-11.866666666665662
0
CIRCLE
5
107
100
AcDbEntity
8
0
100
AcDbCircle
10
-89.449999999999349
20
-87.449999999999832
30
0
40
1.5499999999999934
210
6.5321008831513048e-201
220
-8.6361685550944465e-78
230
1
0
CIRCLE
5
108
100
AcDbEntity
8
0
100
AcDbCircle
10
-89.449999999999378
20
87.450000000000117
30
0
40
1.5499999999999934
210
6.5321008831513048e-201
220
-8.6361685550944465e-78
230
1
0
LWPOLYLINE
5
109
100
AcDbEntity
8
0
100
AcDbPolyline
90
4
70
1
43
0.0
10
-30.333333333334302
20
-85.199999999999562
10
-60.666666666666814
20
-85.199999999999392
10
-60.66666666666768
20
-88.999999999999275
10
-30.333333333334398
20
-88.999999999999559
0
LWPOLYLINE
5
110
100
AcDbEntity
8
0
100
AcDbPolyline
90
4
70
1
43
0.0
10
15.166666666665877
20
-85.199999999999889
10
-15.166666666667437
20
-85.199999999999889
10
-15.166666666667439
20
-88.999999999999886
10
15.166666666665893
20
-88.999999999999844
0
LWPOLYLINE
5
111
100
AcDbEntity
8
0
100
AcDbPolyline
90
4
70
1
43
0.0
10
-90.999999999999957
20
47.466666666667543
10
-91.000000000000341
20
11.86666666666758
10
-87.20000000000033
20
11.866666666667509
10
-87.200000000000131
20
47.466666666667521
0
CIRCLE
5
112
100
AcDbEntity
8
0
100
AcDbCircle
10
89.449999999999505
20
87.450000000000102
30
0
40
1.5499999999999934
210
6.5321008831513048e-201
220
-8.6361685550944465e-78
230
1
0
LWPOLYLINE
5
113
100
AcDbEntity
8
0
100
AcDbPolyline
90
4
70
1
43
0.0
10
60.66666666666535
20
85.200000000000173
10
60.666666666666067
20
89.000000000000057
10
30.333333333332778
20
89.000000000000071
10
30.333333333332813
20
85.200000000000074
0
LWPOLYLINE
5
114
100
AcDbEntity
8
0
100
AcDbPolyline
90
4
70
1
43
0.0
10
87.199999999999633
20
-11.866666666666497
10
87.199999999999903
20
-47.466666666666519
10
90.999999999999815
20
-47.466666666666484
10
90.999999999999716
20
-11.866666666666497
0
LWPOLYLINE
5
115
100
AcDbEntity
8
0
100
AcDbPolyline
90
4
70
1
43
0.0
10
60.666666666665407
20
-85.199999999999932
10
30.333333333332853
20
-85.199999999999847
10
30.333333333332831
20
-88.999999999999844
10
60.66666666666616
20
-88.999999999999801
0
CIRCLE
5
116
100
AcDbEntity
8
0
100
AcDbCircle
10
89.449999999999491
20
-87.449999999999903
30
0
40
1.5500000000000114
210
0
220
0
230
1
0
LWPOLYLINE
5
117
100
AcDbEntity
8
0
100
AcDbPolyline
90
4
70
1
43
0.0
10
-60.666666666667702
20
88.999999999999432
10
-60.666666666666885
20
85.199999999999562
10
-30.333333333334352
20
85.19999999999979
10
-30.33333333333438
20
88.999999999999773
0
ENDSEC
0
SECTION
2
OBJECTS
0
DICTIONARY
5
C
100
AcDbDictionary
3
ACAD_GROUP
350
D
3
ACAD_MLINESTYLE
350
17
0
DICTIONARY
5
D
100
AcDbDictionary
0
DICTIONARY
5
1A
330
C
100
AcDbDictionary
0
DICTIONARY
5
17
100
AcDbDictionary
0
ENDSEC
0
EOF
