0
SECTION
2
HEADER
9
$INSUNITS
70
4
9
$ACADVER
1
AC1014
9
$HANDSEED
5
FFFF
0
ENDSEC
0
SECTION
2
TABLES
0
TABLE
2
VPORT
5
8
100
AcDbSymbolTable
0
ENDTAB
0
TABLE
2
LTYPE
5
5
100
AcDbSymbolTable
0
LTYPE
5
14
100
AcDbSymbolTableRecord
100
AcDbLinetypeTableRecord
2
BYBLOCK
70
0
0
LTYPE
5
15
100
AcDbSymbolTableRecord
100
AcDbLinetypeTableRecord
2
BYLAYER
70
0
0
ENDTAB
0
TABLE
2
LAYER
5
2
100
AcDbSymbolTable
70
2
0
LAYER
5
50
100
AcDbSymbolTableRecord
100
AcDbLayerTableRecord
2
0
70
0
6
CONTINUOUS
0
ENDTAB
0
TABLE
2
STYLE
5
3
100
AcDbSymbolTable
70
1
0
STYLE
5
11
100
AcDbSymbolTableRecord
100
AcDbTextStyleTableRecord
2
STANDARD
70
0
0
ENDTAB
0
TABLE
2
VIEW
5
6
100
AcDbSymbolTable
70
0
0
ENDTAB
0
TABLE
2
UCS
5
7
100
AcDbSymbolTable
70
0
0
ENDTAB
0
TABLE
2
APPID
5
9
100
AcDbSymbolTable
70
2
0
APPID
5
12
100
AcDbSymbolTableRecord
100
AcDbRegAppTableRecord
2
ACAD
70
0
0
ENDTAB
0
TABLE
2
DIMSTYLE
5
A
100
AcDbSymbolTable
70
1
0
ENDTAB
0
TABLE
2
BLOCK_RECORD
5
1
100
AcDbSymbolTable
70
1
0
BLOCK_RECORD
5
1F
100
AcDbSymbolTableRecord
100
AcDbBlockTableRecord
2
*MODEL_SPACE
0
BLOCK_RECORD
5
1B
100
AcDbSymbolTableRecord
100
AcDbBlockTableRecord
2
*PAPER_SPACE
0
ENDTAB
0
ENDSEC
0
SECTION
2
BLOCKS
0
BLOCK
5
20
100
AcDbEntity
100
AcDbBlockBegin
2
*MODEL_SPACE
0
ENDBLK
5
21
100
AcDbEntity
100
AcDbBlockEnd
0
BLOCK
5
1C
100
AcDbEntity
100
AcDbBlockBegin
2
*PAPER_SPACE
0
ENDBLK
5
1D
100
AcDbEntity
100
AcDbBlockEnd
0
ENDSEC
0
SECTION
2
ENTITIES
0
LINE
5
100
100
AcDbEntity
8
0
100
AcDbLine
10
-54.000000953498557
20
9.2500000001047482
30
0
11
-54.000000953498564
21
1.0465295297024113e-10
31
5.4879450723891372e-30
0
LINE
5
101
100
AcDbEntity
8
0
100
AcDbLine
10
-54.000000953498564
20
1.0465295297024113e-10
30
5.4879450723891372e-30
11
-47.466667620333084
21
1.2607692667643278e-10
31
2.9582283945706513e-30
0
LINE
5
102
100
AcDbEntity
8
0
100
AcDbLine
10
-47.466667620333084
20
1.2607692667643278e-10
30
2.9582283945706513e-30
11
-47.466667620338072
21
-3.3999999998737773
31
2.623055562908017e-43
0
ARC
5
103
100
AcDbEntity
8
0
100
AcDbCircle
10
-45.766667620338069
20
-3.3999999998762673
30
0
40
1.6999999999999993
210
1.5429738605390521e-43
220
3.3613646912968947e-43
230
1
100
AcDbArc
50
180
51
269.99999999992122
0
LINE
5
104
100
AcDbEntity
8
0
100
AcDbLine
10
-45.766667620340407
20
-5.0999999998762666
30
5.7143199752093953e-43
11
-13.56666762034064
21
-5.0999999999206214
31
1.6858519208353675e-41
0
ARC
5
105
100
AcDbEntity
8
0
100
AcDbCircle
10
-13.566667620338286
20
-3.3999999999206287
30
0
40
1.6999999999999926
210
-5.2623376460837249e-43
220
9.9167760049146971e-42
230
1
100
AcDbArc
50
269.99999999992065
51
360
0
LINE
5
106
100
AcDbEntity
8
0
100
AcDbLine
10
-11.866667620338294
20
-3.3999999999228763
30
8.9459739985757255e-43
11
-11.866667620333784
21
7.7036155232690362e-11
31
-2.8463875056597847e-43
0
LINE
5
107
100
AcDbEntity
8
0
100
AcDbLine
10
-11.866667620333784
20
7.7036155232690362e-11
30
-2.8463875056597847e-43
11
11.866665712984137
21
1.0031087072093214e-10
31
-8.8463867408557081e-42
0
LINE
5
108
100
AcDbEntity
8
0
100
AcDbLine
10
11.866665712984137
20
1.0031087072093214e-10
30
-8.8463867408557081e-42
11
11.866665712984812
21
-3.3999999999235269
31
-3.8535707768932469e-44
0
ARC
5
109
100
AcDbEntity
8
0
100
AcDbCircle
10
13.566665712984811
20
-3.3999999999232129
30
0
40
1.6999999999999993
210
-2.2668063393493809e-44
220
2.2245613121152282e-44
230
1
100
AcDbArc
50
180
51
269.99999999997362
0
LINE
5
110
100
AcDbEntity
8
0
100
AcDbLine
10
13.56666571298403
20
-5.0999999999232131
30
3.7817542306042963e-44
11
45.766665712985706
21
-5.0999999999383849
31
5.7735290683260732e-42
0
ARC
5
111
100
AcDbEntity
8
0
100
AcDbCircle
10
45.766665712986523
20
-3.3999999999383994
30
0
40
1.6999999999999855
210
-1.9721522630543565e-31
220
3.4909872892491921e-42
230
1
100
AcDbArc
50
269.99999999997249
51
360
0
LINE
5
112
100
AcDbEntity
8
0
100
AcDbLine
10
47.466665712986504
20
-3.3999999999397348
30
3.3526588471923772e-31
11
47.466665712989204
21
6.0809135504769074e-11
31
-7.5976651112611176e-44
0
LINE
5
113
100
AcDbEntity
8
0
100
AcDbLine
10
47.466665712989204
20
6.0809135504769074e-11
30
-7.5976651112611176e-44
11
78.999999046325854
21
2.6476598691260733e-11
31
1.3049306600563916e-41
0
SPLINE
5
114
100
AcDbEntity
8
0
100
AcDbSpline
70
4
71
5
72
21
73
15
74
0
42
0.000000001
43
0.0000000001
44
0.0000000001
40
-1
40
-1
40
-1
40
-1
40
-1
40
-1
40
-0.89999999999999991
40
-0.79999999999999993
40
-0.69999999999999996
40
-0.59999999999999998
40
-0.5
40
-0.40000000000000002
40
-0.30000000000000004
40
-0.20000000000000001
40
-0.10000000000000001
40
0
40
0
40
0
40
0
40
0
40
0
41
1
41
1
41
1
41
1
41
1
41
1
41
1
41
1
41
1
41
1
41
1
41
1
41
1
41
1
41
1
10
78.999999046325854
20
2.6476598691260733e-11
30
0
10
78.77245621875376
20
0.70000000002513074
30
0
10
78.337241770306903
20
2.1000000000224355
30
0
10
77.744031890805317
20
4.2000000000183828
30
0
10
77.074286217710366
20
7.0000000000129647
30
0
10
76.452814877999486
20
10.500000000006239
30
0
10
76.066332154488833
20
13.999999999999794
30
0
10
75.934014905532777
20
17.499999999994063
30
0
10
76.066332154426277
20
20.99999999998969
30
0
10
76.452814877890518
20
24.499999999987793
30
0
10
77.074286217585495
20
27.999999999989523
30
0
10
77.744031890703241
20
30.799999999994917
30
0
10
78.337241770244958
20
32.90000000000154
30
0
10
78.772456218728948
20
34.300000000007131
30
0
10
78.99999904632223
20
35.000000000010218
30
0
0
LINE
5
115
100
AcDbEntity
8
0
100
AcDbLine
10
78.999999046322216
20
35.000000000010203
30
0
11
47.466665712973324
21
35.000000000002316
31
2.9977452493340469e-42
0
LINE
5
116
100
AcDbEntity
8
0
100
AcDbLine
10
47.466665712973324
20
35.000000000002316
30
2.9977452493340469e-42
11
47.466665712968599
21
41.800000000003507
31
-1.9005110422405332e-43
0
ARC
5
117
100
AcDbEntity
8
0
100
AcDbCircle
10
45.766665712968617
20
41.800000000002342
30
0
40
1.6999999999999815
210
1.1179476719063629e-43
220
-2.2595937737161162e-44
230
1
100
AcDbArc
50
0
51
90.000000000000497
0
LINE
5
118
100
AcDbEntity
8
0
100
AcDbLine
10
45.766665712968603
20
43.500000000002323
30
-1.8752438793086363e-43
11
13.56666571297934
21
43.500000000002359
31
-1.3503356978982193e-44
0
ARC
5
119
100
AcDbEntity
8
0
100
AcDbCircle
10
13.56666571297934
20
41.800000000002356
30
0
40
1.6999999999999993
210
2.5138876337568075e-91
220
7.9431511641071739e-45
230
1
100
AcDbArc
50
90
51
180
0
LINE
5
120
100
AcDbEntity
8
0
100
AcDbLine
10
11.866665712979341
20
41.800000000001162
30
4.2736089773865708e-91
11
11.866665712973319
21
34.999999999990806
31
8.6705342480098056e-44
0
LINE
5
121
100
AcDbEntity
8
0
100
AcDbLine
10
11.866665712973319
20
34.999999999990806
30
8.6705342480098056e-44
11
-11.866667620333775
21
35
31
-3.493993618311642e-42
0
LINE
5
122
100
AcDbEntity
8
0
100
AcDbLine
10
-11.866667620333775
20
35
30
-3.493993618311642e-42
11
-11.866667620297289
21
41.799999999993688
31
3.5562327589943248e-42
0
ARC
5
123
100
AcDbEntity
8
0
100
AcDbCircle
10
-13.566667620297279
20
41.800000000002825
30
0
40
1.6999999999999904
210
-2.0919016229476048e-42
220
-1.8162579720617681e-42
230
1
100
AcDbArc
50
0
51
89.999999999985334
0
LINE
5
124
100
AcDbEntity
8
0
100
AcDbLine
10
-13.566667620296844
20
43.500000000002814
30
3.0876385525063384e-42
11
-45.766667620498104
21
43.500000000011326
31
-3.2408056749557262e-42
0
ARC
5
125
100
AcDbEntity
8
0
100
AcDbCircle
10
-45.766667620498552
20
41.800000000011337
30
0
40
1.6999999999999904
210
-1.0127517734185906e-43
220
1.906356279385759e-42
230
1
100
AcDbArc
50
89.999999999984908
51
180
0
LINE
5
126
100
AcDbEntity
8
0
100
AcDbLine
10
-47.466667620498548
20
41.799999999970147
30
-1.7216780148109652e-43
11
-47.46666762033378
21
35
31
9.0186693352405024e-42
0
LINE
5
127
100
AcDbEntity
8
0
100
AcDbLine
10
-47.46666762033378
20
35
30
9.0186693352405024e-42
11
-79.000000953671872
21
35.000000000009578
31
-3.6391547058357003e-42
0
SPLINE
5
128
100
AcDbEntity
8
0
100
AcDbSpline
70
4
71
5
72
18
73
12
74
0
42
0.000000001
43
0.0000000001
44
0.0000000001
40
0
40
0
40
0
40
0
40
0
40
0
40
0.10000000000000001
40
0.20000000000000001
40
0.30000000000000004
40
0.40000000000000002
40
0.5
40
0.59999999999999998
40
0.67857142856800756
40
0.67857142856800756
40
0.67857142856800756
40
0.67857142856800756
40
0.67857142856800756
40
0.67857142856800756
41
1
41
1
41
1
41
1
41
1
41
1
41
1
41
1
41
1
41
1
41
1
41
1
10
-79.000000953671872
20
35.000000000009578
30
0
10
-78.772458126084359
20
34.300000000009931
30
0
10
-78.337243677611013
20
32.900000000010309
30
0
10
-77.74403379808291
20
30.80000000000982
30
0
10
-77.074288124977372
20
28.000000000007404
30
0
10
-76.452816785283758
20
24.500000000002959
30
0
10
-76.066334061806401
20
20.999999999998437
30
0
10
-75.939687552126017
20
17.650000000019496
30
0
10
-76.029136712745554
20
15.000000000043022
30
0
10
-76.193866739985111
20
13.050000000067797
30
0
10
-76.338374552222575
20
11.800000000092744
30
0
10
-76.409337615915774
20
11.250000000117222
30
0
0
LINE
5
129
100
AcDbEntity
8
0
100
AcDbLine
10
-76.409337615915774
20
11.250000000117222
30
0
11
-56.000000953498557
21
11.25000000010475
31
-2.1098995279659674e-44
0
ARC
5
130
100
AcDbEntity
8
0
100
AcDbCircle
10
-56.000000953498557
20
9.25000000010475
30
0
40
2.0000000000000018
210
9.1429170312559054e-78
220
1.6470415094017397e-62
230
1
100
AcDbArc
50
0
51
90
0
ENDSEC
0
SECTION
2
OBJECTS
0
DICTIONARY
5
C
100
AcDbDictionary
3
ACAD_GROUP
350
D
3
ACAD_MLINESTYLE
350
17
0
DICTIONARY
5
D
100
AcDbDictionary
0
DICTIONARY
5
1A
330
C
100
AcDbDictionary
0
DICTIONARY
5
17
100
AcDbDictionary
0
ENDSEC
0
EOF
