0
SECTION
2
HEADER
9
$INSUNITS
70
4
9
$ACADVER
1
AC1014
9
$HANDSEED
5
FFFF
0
ENDSEC
0
SECTION
2
TABLES
0
TABLE
2
VPORT
5
8
100
AcDbSymbolTable
0
ENDTAB
0
TABLE
2
LTYPE
5
5
100
AcDbSymbolTable
0
LTYPE
5
14
100
AcDbSymbolTableRecord
100
AcDbLinetypeTableRecord
2
BYBLOCK
70
0
0
LTYPE
5
15
100
AcDbSymbolTableRecord
100
AcDbLinetypeTableRecord
2
BYLAYER
70
0
0
ENDTAB
0
TABLE
2
LAYER
5
2
100
AcDbSymbolTable
70
2
0
LAYER
5
50
100
AcDbSymbolTableRecord
100
AcDbLayerTableRecord
2
0
70
0
6
CONTINUOUS
0
ENDTAB
0
TABLE
2
STYLE
5
3
100
AcDbSymbolTable
70
1
0
STYLE
5
11
100
AcDbSymbolTableRecord
100
AcDbTextStyleTableRecord
2
STANDARD
70
0
0
ENDTAB
0
TABLE
2
VIEW
5
6
100
AcDbSymbolTable
70
0
0
ENDTAB
0
TABLE
2
UCS
5
7
100
AcDbSymbolTable
70
0
0
ENDTAB
0
TABLE
2
APPID
5
9
100
AcDbSymbolTable
70
2
0
APPID
5
12
100
AcDbSymbolTableRecord
100
AcDbRegAppTableRecord
2
ACAD
70
0
0
ENDTAB
0
TABLE
2
DIMSTYLE
5
A
100
AcDbSymbolTable
70
1
0
ENDTAB
0
TABLE
2
BLOCK_RECORD
5
1
100
AcDbSymbolTable
70
1
0
BLOCK_RECORD
5
1F
100
AcDbSymbolTableRecord
100
AcDbBlockTableRecord
2
*MODEL_SPACE
0
BLOCK_RECORD
5
1B
100
AcDbSymbolTableRecord
100
AcDbBlockTableRecord
2
*PAPER_SPACE
0
ENDTAB
0
ENDSEC
0
SECTION
2
BLOCKS
0
BLOCK
5
20
100
AcDbEntity
100
AcDbBlockBegin
2
*MODEL_SPACE
0
ENDBLK
5
21
100
AcDbEntity
100
AcDbBlockEnd
0
BLOCK
5
1C
100
AcDbEntity
100
AcDbBlockBegin
2
*PAPER_SPACE
0
ENDBLK
5
1D
100
AcDbEntity
100
AcDbBlockEnd
0
ENDSEC
0
SECTION
2
ENTITIES
0
CIRCLE
5
100
100
AcDbEntity
8
0
100
AcDbCircle
10
-56.000034306598593
20
14.999999999999993
30
0
40
12.050000000000001
210
-3.0397364048699357e-77
220
-5.5909902887033695e-62
230
1
0
ARC
5
101
100
AcDbEntity
8
0
100
AcDbCircle
10
-13.466662851969479
20
-3.4000000000000057
30
-3.5579843820747308e-46
40
1.6999999999999971
210
-1.9721522630525308e-31
220
2.000536965977353e-46
230
1
100
AcDbArc
50
180
51
270.00000000000006
0
LINE
5
102
100
AcDbEntity
8
0
100
AcDbLine
10
-13.466662851969478
20
-5.1000000000000023
30
3.7977421297588826e-46
11
13.466670481363847
21
-5.100000000000005
31
1.5583754441435949e-76
0
ARC
5
103
100
AcDbEntity
8
0
100
AcDbCircle
10
13.466670481363858
20
-3.4000000000000052
30
3.2385632081604167e-77
40
1.6999999999999993
210
-1.5415025575180481e-76
220
7.2618771960445346e-77
230
1
100
AcDbArc
50
-90.000000000000369
51
0
0
LINE
5
104
100
AcDbEntity
8
0
100
AcDbLine
10
15.166670481363857
20
-3.4000000000000035
30
1.9821280429896799e-77
11
15.166670481363855
21
-4.4408920985006262e-15
31
-2.0054639079044695e-61
0
LINE
5
105
100
AcDbEntity
8
0
100
AcDbLine
10
15.166670481363855
20
-4.4408920985006262e-15
30
-2.0054639079044695e-61
11
30.333337148030523
21
-4.4408920985006451e-15
31
8.7755052857096024e-77
0
LINE
5
106
100
AcDbEntity
8
0
100
AcDbLine
10
30.333337148030523
20
-4.4408920985006451e-15
30
8.7755052857096024e-77
11
30.333337148030523
21
-3.4000000000000039
31
2.0054639079044695e-61
0
ARC
5
107
100
AcDbEntity
8
0
100
AcDbCircle
10
32.033337148030519
20
-3.400000000000011
30
-9.7234613716580339e-62
40
1.6999999999999948
210
1.1551494495935484e-61
220
-1.5223007123630573e-47
230
1
100
AcDbArc
50
180
51
270
0
LINE
5
108
100
AcDbEntity
8
0
100
AcDbLine
10
32.033337148030519
20
-5.1000000000000059
30
-2.5879112110171991e-47
11
58.966670481363856
21
-5.100000000000005
31
1.5583754441435952e-76
0
ARC
5
109
100
AcDbEntity
8
0
100
AcDbCircle
10
58.966670481363849
20
-3.4000000000000048
30
1.6192816040802084e-77
40
1.6999999999999997
210
1.0302976371975679e-76
220
8.2143957866799042e-77
230
1
100
AcDbArc
50
-89.999999999999744
51
0
0
LINE
5
110
100
AcDbEntity
8
0
100
AcDbLine
10
60.666670481363845
20
-3.4000000000000035
30
1.2858369532351804e-77
11
60.666670481363845
21
-4.4408920985006262e-15
31
-2.0054639079044695e-61
0
LINE
5
111
100
AcDbEntity
8
0
100
AcDbLine
10
60.666670481363845
20
-4.4408920985006262e-15
30
-2.0054639079044695e-61
11
81.00000381469718
21
-4.4408920985006262e-15
31
1.1764963130291993e-76
0
SPLINE
5
112
100
AcDbEntity
8
0
100
AcDbSpline
70
4
71
5
72
21
73
15
74
0
42
0.000000001
43
0.0000000001
44
0.0000000001
40
-1
40
-1
40
-1
40
-1
40
-1
40
-1
40
-0.89999999999999991
40
-0.79999999999999993
40
-0.69999999999999996
40
-0.59999999999999998
40
-0.5
40
-0.40000000000000002
40
-0.30000000000000004
40
-0.20000000000000001
40
-0.10000000000000001
40
0
40
0
40
0
40
0
40
0
40
0
41
1
41
1
41
1
41
1
41
1
41
1
41
1
41
1
41
1
41
1
41
1
41
1
41
1
41
1
41
1
10
81.00000381469718
20
-4.4408920985006262e-15
30
0
10
80.772460987113064
20
0.69999999999978368
30
0
10
80.337246538646269
20
2.0999999999994015
30
0
10
79.744036659127161
20
4.1999999999989548
30
0
10
79.074290986032011
20
6.9999999999986118
30
0
10
78.452819646348374
20
10.499999999998638
30
0
10
78.066336922877539
20
13.999999999999117
30
0
10
77.934019673959412
20
17.500000000000011
30
0
10
78.06633692287798
20
21.000000000001158
30
0
10
78.452819646349141
20
24.500000000002192
30
0
10
79.074290986032892
20
28.000000000002665
30
0
10
79.744036659127886
20
30.800000000002299
30
0
10
80.337246538646696
20
32.900000000001427
30
0
10
80.77246098711322
20
34.300000000000523
30
0
10
81.00000381469718
20
34.999999999999993
30
0
0
LINE
5
113
100
AcDbEntity
8
0
100
AcDbLine
10
81.00000381469718
20
34.999999999999986
30
0
11
60.666670481363816
21
34.999999999999993
31
-1.1764963130292008e-76
0
LINE
5
114
100
AcDbEntity
8
0
100
AcDbLine
10
60.666670481363816
20
34.999999999999993
30
-1.1764963130292008e-76
11
60.666670481363397
21
41.800000000000125
31
1.0351644844068973e-46
0
ARC
5
115
100
AcDbEntity
8
0
100
AcDbCircle
10
58.966670481363394
20
41.800000000000004
30
-1.79276319039945e-61
40
1.7000000000000082
210
-6.0892028494522165e-47
220
-1.5223007123634696e-47
230
1
100
AcDbArc
50
0
51
89.999999999999773
0
LINE
5
116
100
AcDbEntity
8
0
100
AcDbLine
10
58.966670481363401
20
43.500000000000014
30
2.5879112110171898e-47
11
32.033337148030078
21
43.5
31
-2.7041492820299921e-61
0
ARC
5
117
100
AcDbEntity
8
0
100
AcDbCircle
10
32.033337148030071
20
41.800000000000004
30
7.1406669448113687e-62
40
1.6999999999999904
210
8.1120261127820902e-62
220
2.0107152803006711e-61
230
1
100
AcDbArc
50
89.999999999999773
51
180
0
LINE
5
118
100
AcDbEntity
8
0
100
AcDbLine
10
30.333337148030076
20
41.799999999999883
30
-1.8175542282268101e-60
11
30.333337148030523
21
34.999999999999993
31
-1.035164484406861e-46
0
LINE
5
119
100
AcDbEntity
8
0
100
AcDbLine
10
30.333337148030523
20
34.999999999999993
30
-1.035164484406861e-46
11
15.166670481363855
21
34.999999999999993
31
-8.7755052857096024e-77
0
LINE
5
120
100
AcDbEntity
8
0
100
AcDbLine
10
15.166670481363855
20
34.999999999999993
30
-8.7755052857096024e-77
11
15.166670481363855
21
41.799999999999997
31
-4.861730685829017e-62
0
ARC
5
121
100
AcDbEntity
8
0
100
AcDbCircle
10
13.46667048136386
20
41.799999999999997
30
7.2925960287435254e-62
40
1.6999999999999948
210
7.1496039497485764e-62
220
-1.5223007123630515e-47
230
1
100
AcDbArc
50
0
51
90.000000000000114
0
LINE
5
122
100
AcDbEntity
8
0
100
AcDbLine
10
13.466670481363856
20
43.5
30
2.5879112110171869e-47
11
-13.466662851969486
21
43.5
31
-1.5583754441435958e-76
0
ARC
5
123
100
AcDbEntity
8
0
100
AcDbCircle
10
-13.466662851969499
20
41.799999999999997
30
2.2333575338027047e-61
40
1.6999999999999993
210
4.3150685290680234e-62
220
1.3137397257662949e-61
230
1
100
AcDbArc
50
89.999999999999588
51
180
0
LINE
5
124
100
AcDbEntity
8
0
100
AcDbLine
10
-15.166662851969498
20
41.799999999999997
30
9.4113286171687385e-62
11
-15.166662851969495
21
35
31
4.861730685829017e-62
0
LINE
5
125
100
AcDbEntity
8
0
100
AcDbLine
10
-15.166662851969495
20
35
30
4.861730685829017e-62
11
-30.333329518636116
21
35
31
6.7603732050749672e-62
0
LINE
5
126
100
AcDbEntity
8
0
100
AcDbLine
10
-30.333329518636116
20
35
30
6.7603732050749672e-62
11
-30.333329518637395
21
41.800000000000317
31
1.0351644844069265e-46
0
ARC
5
127
100
AcDbEntity
8
0
100
AcDbCircle
10
-32.033329518637387
20
41.79999999999999
30
-3.2208965793617237e-61
40
1.6999999999999904
210
-6.0892028494522681e-47
220
-1.5223007123642414e-47
230
1
100
AcDbArc
50
0
51
89.999999999999517
0
LINE
5
128
100
AcDbEntity
8
0
100
AcDbLine
10
-32.033329518637373
20
43.5
30
2.5879112110171898e-47
11
-58.966662851970675
21
43.5
31
-1.5583754441435931e-76
0
ARC
5
129
100
AcDbEntity
8
0
100
AcDbCircle
10
-58.966662851970682
20
41.800000000000004
30
-4.5432723648031178e-45
40
1.6999999999999904
210
-1.972152263052517e-31
220
-1.6421466378806606e-45
230
1
100
AcDbArc
50
89.999999999999773
51
180
0
LINE
5
130
100
AcDbEntity
8
0
100
AcDbLine
10
-60.666662851970671
20
41.799999999999628
30
-3.3526588471893053e-31
11
-60.6666628519692
21
35.000000000000007
31
-1.0351644844068211e-46
0
LINE
5
131
100
AcDbEntity
8
0
100
AcDbLine
10
-60.6666628519692
20
35.000000000000007
30
-1.0351644844068211e-46
11
-80.99999618530282
21
34.999999999999993
31
-6.760373205074987e-62
0
SPLINE
5
132
100
AcDbEntity
8
0
100
AcDbSpline
70
4
71
5
72
21
73
15
74
0
42
0.000000001
43
0.0000000001
44
0.0000000001
40
0
40
0
40
0
40
0
40
0
40
0
40
0.10000000000000001
40
0.20000000000000001
40
0.30000000000000004
40
0.40000000000000002
40
0.5
40
0.59999999999999998
40
0.69999999999999996
40
0.79999999999999993
40
0.89999999999999991
40
1
40
1
40
1
40
1
40
1
40
1
41
1
41
1
41
1
41
1
41
1
41
1
41
1
41
1
41
1
41
1
41
1
41
1
41
1
41
1
41
1
10
-80.99999618530282
20
34.999999999999993
30
0
10
-80.772453357708883
20
34.300000000000367
30
0
10
-80.33723890922461
20
32.900000000001015
30
0
10
-79.744029029685692
20
30.800000000001596
30
0
10
-79.074283356576686
20
28.000000000001762
30
0
10
-78.452812016896573
20
24.50000000000135
30
0
10
-78.066329293446955
20
21.000000000000675
30
0
10
-77.934012044563531
20
17.500000000000018
30
0
10
-78.066329293522827
20
13.999999999999577
30
0
10
-78.452812017028833
20
10.499999999999394
30
0
10
-79.074283356727847
20
6.9999999999994404
30
0
10
-79.744029029808857
20
4.1999999999996005
30
0
10
-80.337238909297866
20
2.0999999999997763
30
0
10
-80.772453357735529
20
0.69999999999991847
30
0
10
-80.99999618530282
20
-4.4408920985006877e-15
30
0
0
LINE
5
133
100
AcDbEntity
8
0
100
AcDbLine
10
-80.99999618530282
20
-4.3020753098464671e-15
30
0
11
-60.666662851969448
21
5.3290705182007457e-14
31
8.7884851665974692e-61
0
LINE
5
134
100
AcDbEntity
8
0
100
AcDbLine
10
-60.666662851969448
20
5.3290705182007457e-14
30
8.7884851665974692e-61
11
-60.666662851969448
21
-3.3999999999999497
31
-4.2540143501003898e-62
0
ARC
5
135
100
AcDbEntity
8
0
100
AcDbCircle
10
-58.966662851969446
20
-3.3999999999999515
30
-2.4905890674523116e-45
40
1.6999999999999993
210
1.4650523926190083e-45
220
8.0707476088506604e-46
230
1
100
AcDbArc
50
180
51
270
0
LINE
5
136
100
AcDbEntity
8
0
100
AcDbLine
10
-58.966662851969446
20
-5.0999999999999517
30
-8.4131516490789333e-46
11
-32.033329518636137
21
-5.1000000000000014
31
-7.774429185836221e-61
0
ARC
5
137
100
AcDbEntity
8
0
100
AcDbCircle
10
-32.033329518636137
20
-3.4000000000000052
30
-7.1406669448113687e-62
40
1.699999999999996
210
1.5864587151727332e-63
220
-4.1531544066794711e-61
230
1
100
AcDbArc
50
270
51
360
0
LINE
5
138
100
AcDbEntity
8
0
100
AcDbLine
10
-30.333329518636138
20
-3.4000000000000115
30
-1.6762936344345166e-61
11
-30.333329518636116
21
5.3290705182007514e-14
31
5.1758224220344944e-47
0
LINE
5
139
100
AcDbEntity
8
0
100
AcDbLine
10
-30.333329518636116
20
5.3290705182007514e-14
30
5.1758224220344944e-47
11
-15.166662851969495
21
-4.4408920985006577e-15
31
-8.7884851665974664e-61
0
LINE
5
140
100
AcDbEntity
8
0
100
AcDbLine
10
-15.166662851969495
20
-4.4408920985006577e-15
30
-8.7884851665974664e-61
11
-15.166662851969477
21
-3.4000000000000039
31
-3.3526588471892996e-31
0
ENDSEC
0
SECTION
2
OBJECTS
0
DICTIONARY
5
C
100
AcDbDictionary
3
ACAD_GROUP
350
D
3
ACAD_MLINESTYLE
350
17
0
DICTIONARY
5
D
100
AcDbDictionary
0
DICTIONARY
5
1A
330
C
100
AcDbDictionary
0
DICTIONARY
5
17
100
AcDbDictionary
0
ENDSEC
0
EOF
