0
SECTION
2
HEADER
9
$INSUNITS
70
4
9
$ACADVER
1
AC1014
9
$HANDSEED
5
FFFF
0
ENDSEC
0
SECTION
2
TABLES
0
TABLE
2
VPORT
5
8
100
AcDbSymbolTable
0
ENDTAB
0
TABLE
2
LTYPE
5
5
100
AcDbSymbolTable
0
LTYPE
5
14
100
AcDbSymbolTableRecord
100
AcDbLinetypeTableRecord
2
BYBLOCK
70
0
0
LTYPE
5
15
100
AcDbSymbolTableRecord
100
AcDbLinetypeTableRecord
2
BYLAYER
70
0
0
ENDTAB
0
TABLE
2
LAYER
5
2
100
AcDbSymbolTable
70
2
0
LAYER
5
50
100
AcDbSymbolTableRecord
100
AcDbLayerTableRecord
2
0
70
0
6
CONTINUOUS
0
ENDTAB
0
TABLE
2
STYLE
5
3
100
AcDbSymbolTable
70
1
0
STYLE
5
11
100
AcDbSymbolTableRecord
100
AcDbTextStyleTableRecord
2
STANDARD
70
0
0
ENDTAB
0
TABLE
2
VIEW
5
6
100
AcDbSymbolTable
70
0
0
ENDTAB
0
TABLE
2
UCS
5
7
100
AcDbSymbolTable
70
0
0
ENDTAB
0
TABLE
2
APPID
5
9
100
AcDbSymbolTable
70
2
0
APPID
5
12
100
AcDbSymbolTableRecord
100
AcDbRegAppTableRecord
2
ACAD
70
0
0
ENDTAB
0
TABLE
2
DIMSTYLE
5
A
100
AcDbSymbolTable
70
1
0
ENDTAB
0
TABLE
2
BLOCK_RECORD
5
1
100
AcDbSymbolTable
70
1
0
BLOCK_RECORD
5
1F
100
AcDbSymbolTableRecord
100
AcDbBlockTableRecord
2
*MODEL_SPACE
0
BLOCK_RECORD
5
1B
100
AcDbSymbolTableRecord
100
AcDbBlockTableRecord
2
*PAPER_SPACE
0
ENDTAB
0
ENDSEC
0
SECTION
2
BLOCKS
0
BLOCK
5
20
100
AcDbEntity
100
AcDbBlockBegin
2
*MODEL_SPACE
0
ENDBLK
5
21
100
AcDbEntity
100
AcDbBlockEnd
0
BLOCK
5
1C
100
AcDbEntity
100
AcDbBlockBegin
2
*PAPER_SPACE
0
ENDBLK
5
1D
100
AcDbEntity
100
AcDbBlockEnd
0
ENDSEC
0
SECTION
2
ENTITIES
0
ARC
5
100
100
AcDbEntity
8
0
100
AcDbCircle
10
-45.766665712986459
20
-3.399999999940706
30
8.3388404723339299e-58
40
1.7000000000000082
210
-1.7875192912665642e-43
220
2.2946262353234545e-44
230
1
100
AcDbArc
50
180
51
270.00000000002655
0
LINE
5
101
100
AcDbEntity
8
0
100
AcDbLine
10
-45.76666571298567
20
-5.0999999999407137
30
3.9008646000641013e-44
11
-13.566665712983994
21
-5.0999999999255134
31
5.77521698794844e-42
0
ARC
5
102
100
AcDbEntity
8
0
100
AcDbCircle
10
-13.566665712984793
20
-3.3999999999255142
30
-2.8625870278161252e-58
40
1.6999999999999988
210
7.542890812320107e-44
220
3.3971864634991214e-42
230
1
100
AcDbArc
50
270.000000000027
51
360
0
LINE
5
103
100
AcDbEntity
8
0
100
AcDbLine
10
-11.866665712984794
20
-3.399999999925849
30
-1.2822914381213152e-43
11
-11.866665712984101
21
9.7986063707367066e-11
31
-4.0506283734389243e-44
0
LINE
5
104
100
AcDbEntity
8
0
100
AcDbLine
10
-11.866665712984101
20
9.7986063707367066e-11
30
-4.0506283734389243e-44
11
11.866667620333819
21
7.4714261650864807e-11
31
-8.8452793870870185e-42
0
LINE
5
105
100
AcDbEntity
8
0
100
AcDbLine
10
11.866667620333819
20
7.4714261650864807e-11
30
-8.8452793870870185e-42
11
11.866667620338331
21
-3.3999999999251997
31
-2.8376293902577546e-43
0
ARC
5
106
100
AcDbEntity
8
0
100
AcDbCircle
10
13.566667620338333
20
-3.3999999999229429
30
9.9568244445778267e-58
40
1.7000000000000015
210
-1.6691937589754589e-43
220
2.2946262353070078e-44
230
1
100
AcDbArc
50
180
51
270.00000000007901
0
LINE
5
107
100
AcDbEntity
8
0
100
AcDbLine
10
13.566667620340676
20
-5.0999999999229439
30
3.9008646000641884e-44
11
45.766667620340442
21
-5.0999999998785874
31
1.6859363168164843e-41
0
ARC
5
108
100
AcDbEntity
8
0
100
AcDbCircle
10
45.766667620338112
20
-3.3999999998785913
30
-3.9827297778311307e-58
40
1.699999999999996
210
-5.5605160943528264e-43
220
9.9172724518609341e-42
230
1
100
AcDbArc
50
-89.999999999921414
51
0
0
LINE
5
109
100
AcDbEntity
8
0
100
AcDbLine
10
47.466667620338114
20
-3.3999999998760995
30
9.4528773601695519e-43
11
47.466667620333133
21
1.237565605549662e-10
31
2.6208660340575094e-43
0
LINE
5
110
100
AcDbEntity
8
0
100
AcDbLine
10
47.466667620333133
20
1.237565605549662e-10
30
2.6208660340575094e-43
11
79.000000953674203
21
2.0347533182172481e-11
31
-3.9304293498135986e-41
0
SPLINE
5
111
100
AcDbEntity
8
0
100
AcDbSpline
70
4
71
5
72
21
73
15
74
0
42
0.000000001
43
0.0000000001
44
0.0000000001
40
0
40
0
40
0
40
0
40
0
40
0
40
0.10000000000000001
40
0.20000000000000001
40
0.30000000000000004
40
0.40000000000000002
40
0.5
40
0.59999999999999998
40
0.69999999999999996
40
0.79999999999999993
40
0.89999999999999991
40
1
40
1
40
1
40
1
40
1
40
1
41
1
41
1
41
1
41
1
41
1
41
1
41
1
41
1
41
1
41
1
41
1
41
1
41
1
41
1
41
1
10
79.000000953671901
20
35.000000000007255
30
0
10
78.772458126084388
20
34.300000000007607
30
0
10
78.337243677611056
20
32.900000000007992
30
0
10
77.744033798082938
20
30.800000000007497
30
0
10
77.074288124977414
20
28.000000000005084
30
0
10
76.452816785283801
20
24.500000000000636
30
0
10
76.066334061806444
20
20.999999999996113
30
0
10
75.934016812885673
20
17.499999999993101
30
0
10
76.066334061805904
20
13.999999999992681
30
0
10
76.452816785283048
20
10.499999999995225
30
0
10
77.074288124976945
20
7.000000000000691
30
0
10
77.744033798083223
20
4.2000000000072655
30
0
10
78.337243677612221
20
2.1000000000133641
30
0
10
78.772458126086292
20
0.70000000001793528
30
0
10
79.000000953674203
20
2.0347533182172481e-11
30
0
0
LINE
5
112
100
AcDbEntity
8
0
100
AcDbLine
10
79.000000953671901
20
35.000000000007255
30
0
11
47.466667620333823
21
35.000000000000036
31
-2.7445573059781279e-42
0
LINE
5
113
100
AcDbEntity
8
0
100
AcDbLine
10
47.466667620333823
20
35.000000000000036
30
-2.7445573059781279e-42
11
47.46666762049859
21
41.799999999967824
31
8.1200866949922134e-42
0
ARC
5
114
100
AcDbEntity
8
0
100
AcDbCircle
10
45.766667620498581
20
41.800000000009021
30
-6.0212043388956984e-46
40
1.7000000000000082
210
-4.7768757738976321e-42
220
-4.8529455148780473e-42
230
1
100
AcDbArc
50
0
51
90.000000000014609
0
LINE
5
115
100
AcDbEntity
8
0
100
AcDbLine
10
45.766667620498147
20
43.500000000009031
30
3.9559648187627e-44
11
13.566667620296879
21
43.500000000000483
31
-3.2374298357109772e-42
0
ARC
5
116
100
AcDbEntity
8
0
100
AcDbCircle
10
13.566667620297325
20
41.800000000000495
30
-1.951537591137254e-56
40
1.6999999999999904
210
-2.0393420055184904e-42
220
1.9043704915941565e-42
230
1
100
AcDbArc
50
90.000000000015021
51
180
0
LINE
5
117
100
AcDbEntity
8
0
100
AcDbLine
10
11.866667620297326
20
41.799999999991371
30
-3.4668814093772905e-42
11
11.866667620333819
21
35.000000000000028
31
-2.7198327381004496e-42
0
LINE
5
118
100
AcDbEntity
8
0
100
AcDbLine
10
11.866667620333819
20
35.000000000000028
30
-2.7198327381004496e-42
11
-11.866665712984101
21
34.999999999988489
31
-4.388591018169208e-42
0
LINE
5
119
100
AcDbEntity
8
0
100
AcDbLine
10
-11.866665712984101
20
34.999999999988489
30
-4.388591018169208e-42
11
-11.866665712979305
21
41.799999999998846
31
8.2326284779083003e-44
0
ARC
5
120
100
AcDbEntity
8
0
100
AcDbCircle
10
-13.566665712979303
20
41.800000000000033
30
-1.7623773736130186e-61
40
1.6999999999999971
210
-4.8427226340637145e-44
220
3.3925239636074854e-56
230
1
100
AcDbArc
50
0
51
90.000000000000057
0
LINE
5
121
100
AcDbEntity
8
0
100
AcDbLine
10
-13.566665712979304
20
43.500000000000028
30
9.355584784456978e-63
11
-45.76666571296856
21
43.5
31
-1.3503356978982178e-44
0
ARC
5
122
100
AcDbEntity
8
0
100
AcDbCircle
10
-45.766665712968575
20
41.800000000000004
30
1.2446030555722283e-57
40
1.6999999999999904
210
2.641408041409372e-43
220
7.9431511641065603e-45
230
1
100
AcDbArc
50
89.999999999999517
51
180
0
LINE
5
123
100
AcDbEntity
8
0
100
AcDbLine
10
-47.466665712968563
20
41.800000000001177
30
4.4903936703935636e-43
11
-47.466665712973288
21
35.000000000000007
31
-1.8610995229313977e-43
0
LINE
5
124
100
AcDbEntity
8
0
100
AcDbLine
10
-47.466665712973288
20
35.000000000000007
30
-1.8610995229313977e-43
11
-78.999999046322188
21
35.000000000007894
31
2.9994331689564163e-42
0
SPLINE
5
125
100
AcDbEntity
8
0
100
AcDbSpline
70
4
71
5
72
21
73
15
74
0
42
0.000000001
43
0.0000000001
44
0.0000000001
40
0
40
0
40
0
40
0
40
0
40
0
40
0.10000000000000001
40
0.20000000000000001
40
0.30000000000000004
40
0.40000000000000002
40
0.5
40
0.59999999999999998
40
0.69999999999999996
40
0.79999999999999993
40
0.89999999999999991
40
1
40
1
40
1
40
1
40
1
40
1
41
1
41
1
41
1
41
1
41
1
41
1
41
1
41
1
41
1
41
1
41
1
41
1
41
1
41
1
41
1
10
-78.999999046322188
20
35.000000000007894
30
0
10
-78.772456218728905
20
34.300000000004808
30
0
10
-78.33724177024493
20
32.899999999999217
30
0
10
-77.744031890703198
20
30.799999999992593
30
0
10
-77.074286217585453
20
27.9999999999872
30
0
10
-76.452814877890489
20
24.499999999985469
30
0
10
-76.066332154426249
20
20.999999999987367
30
0
10
-75.934014905532749
20
17.499999999991743
30
0
10
-76.066332154488805
20
13.999999999997472
30
0
10
-76.452814877999458
20
10.500000000003915
30
0
10
-77.074286217710323
20
7.0000000000106422
30
0
10
-77.744031890805289
20
4.2000000000160593
30
0
10
-78.337241770306875
20
2.1000000000201129
30
0
10
-78.772456218753732
20
0.70000000002280816
30
0
10
-78.999999046325811
20
2.4154012123744906e-11
30
0
0
LINE
5
126
100
AcDbEntity
8
0
100
AcDbLine
10
-78.999999046325811
20
2.4153874019059497e-11
30
0
11
-47.466665712989169
21
5.8488684860058366e-11
31
1.3050118434297907e-41
0
LINE
5
127
100
AcDbEntity
8
0
100
AcDbLine
10
-47.466665712989169
20
5.8488684860058366e-11
30
1.3050118434297907e-41
11
-47.466665712986469
21
-3.3999999999420578
31
-3.0387827951528551e-43
0
ENDSEC
0
SECTION
2
OBJECTS
0
DICTIONARY
5
C
100
AcDbDictionary
3
ACAD_GROUP
350
D
3
ACAD_MLINESTYLE
350
17
0
DICTIONARY
5
D
100
AcDbDictionary
0
DICTIONARY
5
1A
330
C
100
AcDbDictionary
0
DICTIONARY
5
17
100
AcDbDictionary
0
ENDSEC
0
EOF
