0
SECTION
2
HEADER
9
$INSUNITS
70
4
9
$ACADVER
1
AC1014
9
$HANDSEED
5
FFFF
0
ENDSEC
0
SECTION
2
TABLES
0
TABLE
2
VPORT
5
8
100
AcDbSymbolTable
0
ENDTAB
0
TABLE
2
LTYPE
5
5
100
AcDbSymbolTable
0
LTYPE
5
14
100
AcDbSymbolTableRecord
100
AcDbLinetypeTableRecord
2
BYBLOCK
70
0
0
LTYPE
5
15
100
AcDbSymbolTableRecord
100
AcDbLinetypeTableRecord
2
BYLAYER
70
0
0
ENDTAB
0
TABLE
2
LAYER
5
2
100
AcDbSymbolTable
70
2
0
LAYER
5
50
100
AcDbSymbolTableRecord
100
AcDbLayerTableRecord
2
0
70
0
6
CONTINUOUS
0
ENDTAB
0
TABLE
2
STYLE
5
3
100
AcDbSymbolTable
70
1
0
STYLE
5
11
100
AcDbSymbolTableRecord
100
AcDbTextStyleTableRecord
2
STANDARD
70
0
0
ENDTAB
0
TABLE
2
VIEW
5
6
100
AcDbSymbolTable
70
0
0
ENDTAB
0
TABLE
2
UCS
5
7
100
AcDbSymbolTable
70
0
0
ENDTAB
0
TABLE
2
APPID
5
9
100
AcDbSymbolTable
70
2
0
APPID
5
12
100
AcDbSymbolTableRecord
100
AcDbRegAppTableRecord
2
ACAD
70
0
0
ENDTAB
0
TABLE
2
DIMSTYLE
5
A
100
AcDbSymbolTable
70
1
0
ENDTAB
0
TABLE
2
BLOCK_RECORD
5
1
100
AcDbSymbolTable
70
1
0
BLOCK_RECORD
5
1F
100
AcDbSymbolTableRecord
100
AcDbBlockTableRecord
2
*MODEL_SPACE
0
BLOCK_RECORD
5
1B
100
AcDbSymbolTableRecord
100
AcDbBlockTableRecord
2
*PAPER_SPACE
0
ENDTAB
0
ENDSEC
0
SECTION
2
BLOCKS
0
BLOCK
5
20
100
AcDbEntity
100
AcDbBlockBegin
2
*MODEL_SPACE
0
ENDBLK
5
21
100
AcDbEntity
100
AcDbBlockEnd
0
BLOCK
5
1C
100
AcDbEntity
100
AcDbBlockBegin
2
*PAPER_SPACE
0
ENDBLK
5
1D
100
AcDbEntity
100
AcDbBlockEnd
0
ENDSEC
0
SECTION
2
ENTITIES
0
ARC
5
100
100
AcDbEntity
8
0
100
AcDbCircle
10
58.966662851969232
20
-3.3999999999999506
30
4.926439913641935e-46
40
1.6999999999999982
210
-1.9721522630525219e-31
220
-2.8979058315540839e-46
230
1
100
AcDbArc
50
-90
51
0
0
LINE
5
101
100
AcDbEntity
8
0
100
AcDbLine
10
60.666662851969235
20
-3.3999999999999493
30
3.3526588471892883e-31
11
60.666662851969235
21
5.440092820663267e-14
31
-6.0771633572862712e-62
0
LINE
5
102
100
AcDbEntity
8
0
100
AcDbLine
10
60.666662851969235
20
5.440092820663267e-14
30
-6.0771633572862712e-62
11
80.999996185302606
21
-4.4408920985006893e-15
31
8.9574944967243436e-61
0
SPLINE
5
103
100
AcDbEntity
8
0
100
AcDbSpline
70
4
71
5
72
21
73
15
74
0
42
0.000000001
43
0.0000000001
44
0.0000000001
40
0
40
0
40
0
40
0
40
0
40
0
40
0.10000000000000001
40
0.20000000000000001
40
0.30000000000000004
40
0.40000000000000002
40
0.5
40
0.59999999999999998
40
0.69999999999999996
40
0.79999999999999993
40
0.89999999999999991
40
1
40
1
40
1
40
1
40
1
40
1
41
1
41
1
41
1
41
1
41
1
41
1
41
1
41
1
41
1
41
1
41
1
41
1
41
1
41
1
41
1
10
80.999996185302606
20
34.999999999999993
30
0
10
80.77245335770867
20
34.300000000000367
30
0
10
80.337238909224396
20
32.900000000001015
30
0
10
79.744029029685478
20
30.800000000001596
30
0
10
79.074283356576473
20
28.000000000001762
30
0
10
78.45281201689636
20
24.50000000000135
30
0
10
78.066329293446742
20
21.000000000000675
30
0
10
77.934012044563318
20
17.500000000000018
30
0
10
78.066329293522614
20
13.999999999999577
30
0
10
78.45281201702862
20
10.499999999999394
30
0
10
79.074283356727634
20
6.9999999999994404
30
0
10
79.744029029808644
20
4.1999999999996005
30
0
10
80.337238909297653
20
2.0999999999997763
30
0
10
80.772453357735316
20
0.69999999999991847
30
0
10
80.999996185302606
20
-4.4408920985006877e-15
30
0
0
LINE
5
104
100
AcDbEntity
8
0
100
AcDbLine
10
80.999996185302606
20
34.999999999999993
30
0
11
60.666662851968987
21
35
31
-6.760373205074987e-62
0
LINE
5
105
100
AcDbEntity
8
0
100
AcDbLine
10
60.666662851968987
20
35
30
-6.760373205074987e-62
11
60.666662851970457
21
41.799999999999628
31
-1.0351644844068211e-46
0
ARC
5
106
100
AcDbEntity
8
0
100
AcDbCircle
10
58.966662851970469
20
41.800000000000004
30
1.1090823127047445e-61
40
1.6999999999999904
210
6.0892028494517799e-47
220
-6.6722813814583577e-48
230
1
100
AcDbArc
50
0
51
90.000000000000242
0
LINE
5
107
100
AcDbEntity
8
0
100
AcDbLine
10
58.966662851970462
20
43.5
30
1.1342878348456001e-47
11
32.03332951863716
21
43.5
31
-1.5583754441435931e-76
0
ARC
5
108
100
AcDbEntity
8
0
100
AcDbCircle
10
32.033329518637174
20
41.79999999999999
30
1.8991135491519597e-61
40
1.7000000000000082
210
1.6075453805716744e-62
220
1.1171256171482081e-61
230
1
100
AcDbArc
50
90.000000000000497
51
180
0
LINE
5
109
100
AcDbEntity
8
0
100
AcDbLine
10
30.333329518637164
20
41.800000000000317
30
-4.9215526107421224e-60
11
30.333329518635903
21
35.000000000000007
31
1.0351644844069265e-46
0
LINE
5
110
100
AcDbEntity
8
0
100
AcDbLine
10
30.333329518635903
20
35.000000000000007
30
1.0351644844069265e-46
11
15.166662851969281
21
34.999999999999993
31
6.7603732050749672e-62
0
LINE
5
111
100
AcDbEntity
8
0
100
AcDbLine
10
15.166662851969281
20
34.999999999999993
30
6.7603732050749672e-62
11
15.166662851969281
21
41.799999999999997
31
4.861730685829017e-62
0
ARC
5
112
100
AcDbEntity
8
0
100
AcDbCircle
10
13.466662851969286
20
41.799999999999997
30
-8.2041705323364661e-62
40
1.6999999999999948
210
-7.68582424597972e-62
220
1.5223007123630507e-47
230
1
100
AcDbArc
50
0
51
90.000000000000114
0
LINE
5
113
100
AcDbEntity
8
0
100
AcDbLine
10
13.466662851969282
20
43.5
30
-2.5879112110171869e-47
11
-13.46667048136406
21
43.5
31
-1.5583754441435958e-76
0
ARC
5
114
100
AcDbEntity
8
0
100
AcDbCircle
10
-13.466670481364066
20
41.799999999999997
30
9.1917095778954852e-62
40
1.6999999999999993
210
-1.5092473269375468e-62
220
5.4068879869973597e-62
230
1
100
AcDbArc
50
89.999999999999815
51
180
0
LINE
5
115
100
AcDbEntity
8
0
100
AcDbLine
10
-15.166670481364065
20
41.799999999999997
30
3.6730942904997092e-62
11
-15.16667048136406
21
35
31
-4.861730685829017e-62
0
LINE
5
116
100
AcDbEntity
8
0
100
AcDbLine
10
-15.16667048136406
20
35
30
-4.861730685829017e-62
11
-30.333337148030726
21
34.999999999999993
31
-8.7755052857096024e-77
0
LINE
5
117
100
AcDbEntity
8
0
100
AcDbLine
10
-30.333337148030726
20
34.999999999999993
30
-8.7755052857096024e-77
11
-30.333337148030282
21
41.799999999999869
31
-1.035164484406861e-46
0
ARC
5
118
100
AcDbEntity
8
0
100
AcDbCircle
10
-32.03333714803027
20
41.800000000000004
30
9.7156896244812502e-76
40
1.6999999999999904
210
6.0892028494521572e-47
220
-4.8716936238182717e-60
230
1
100
AcDbArc
50
0
51
90.000000000000497
0
LINE
5
119
100
AcDbEntity
8
0
100
AcDbLine
10
-32.033337148030284
20
43.5
30
1.6943131440114135e-61
11
-58.966670481363607
21
43.500000000000014
31
-2.7041492820299921e-61
0
ARC
5
120
100
AcDbEntity
8
0
100
AcDbCircle
10
-58.966670481363593
20
41.800000000000004
30
4.0449599306097421e-59
40
1.7000000000000082
210
7.7506846179138972e-58
220
2.3952949549592418e-59
230
1
100
AcDbArc
50
90.000000000000497
51
180
0
LINE
5
121
100
AcDbEntity
8
0
100
AcDbLine
10
-60.666670481363603
20
41.800000000000125
30
-3.7206061678731166e-59
11
-60.666670481364037
21
35
31
1.0351644844068973e-46
0
LINE
5
122
100
AcDbEntity
8
0
100
AcDbLine
10
-60.666670481364037
20
35
30
1.0351644844068973e-46
11
-81.000003814697394
21
34.999999999999993
31
-1.1764963130292007e-76
0
SPLINE
5
123
100
AcDbEntity
8
0
100
AcDbSpline
70
4
71
5
72
21
73
15
74
0
42
0.000000001
43
0.0000000001
44
0.0000000001
40
0
40
0
40
0
40
0
40
0
40
0
40
0.10000000000000001
40
0.20000000000000001
40
0.30000000000000004
40
0.40000000000000002
40
0.5
40
0.59999999999999998
40
0.69999999999999996
40
0.79999999999999993
40
0.89999999999999991
40
1
40
1
40
1
40
1
40
1
40
1
41
1
41
1
41
1
41
1
41
1
41
1
41
1
41
1
41
1
41
1
41
1
41
1
41
1
41
1
41
1
10
-81.000003814697394
20
34.999999999999993
30
0
10
-80.772460987113433
20
34.300000000000523
30
0
10
-80.337246538646923
20
32.900000000001427
30
0
10
-79.744036659128085
20
30.800000000002299
30
0
10
-79.074290986033105
20
28.000000000002665
30
0
10
-78.45281964634934
20
24.500000000002192
30
0
10
-78.066336922878193
20
21.000000000001158
30
0
10
-77.934019673959625
20
17.500000000000011
30
0
10
-78.066336922877738
20
13.999999999999117
30
0
10
-78.452819646348587
20
10.499999999998638
30
0
10
-79.074290986032224
20
6.9999999999986118
30
0
10
-79.744036659127374
20
4.1999999999989548
30
0
10
-80.337246538646497
20
2.0999999999994015
30
0
10
-80.772460987113277
20
0.69999999999978368
30
0
10
-81.000003814697394
20
-4.4408920985006262e-15
30
0
0
LINE
5
124
100
AcDbEntity
8
0
100
AcDbLine
10
-81.000003814697394
20
-4.4407858885099744e-15
30
0
11
-60.666670481364058
21
-4.4408920985006341e-15
31
1.1764963130291993e-76
0
LINE
5
125
100
AcDbEntity
8
0
100
AcDbLine
10
-60.666670481364058
20
-4.4408920985006341e-15
30
1.1764963130291993e-76
11
-60.666670481364058
21
-3.4000000000000039
31
-2.0054639079044695e-61
0
ARC
5
126
100
AcDbEntity
8
0
100
AcDbCircle
10
-58.966670481364062
20
-3.4000000000000066
30
-1.2154326714572542e-62
40
1.6999999999999993
210
-1.1953382641693516e-61
220
-6.672281381444695e-48
230
1
100
AcDbArc
50
180
51
270
0
LINE
5
127
100
AcDbEntity
8
0
100
AcDbLine
10
-58.966670481364062
20
-5.1000000000000059
30
-1.1342878348455988e-47
11
-32.033337148030725
21
-5.100000000000005
31
1.5583754441435952e-76
0
ARC
5
128
100
AcDbEntity
8
0
100
AcDbCircle
10
-32.033337148030718
20
-3.4000000000000092
30
-1.1334971228561459e-76
40
1.6999999999999953
210
5.7151115438125573e-77
220
1.5834544511763214e-76
230
1
100
AcDbArc
50
-90.000000000000256
51
0
0
LINE
5
129
100
AcDbEntity
8
0
100
AcDbLine
10
-30.333337148030726
20
-3.4000000000000039
30
1.9327643026686397e-78
11
-30.333337148030726
21
-4.4408920985006262e-15
31
2.0054639079044695e-61
0
LINE
5
130
100
AcDbEntity
8
0
100
AcDbLine
10
-30.333337148030726
20
-4.4408920985006262e-15
30
2.0054639079044695e-61
11
-15.16667048136406
21
-4.4408920985006514e-15
31
8.7755052857096024e-77
0
LINE
5
131
100
AcDbEntity
8
0
100
AcDbLine
10
-15.16667048136406
20
-4.4408920985006514e-15
30
8.7755052857096024e-77
11
-15.16667048136406
21
-3.4000000000000039
31
-2.0054639079044695e-61
0
ARC
5
132
100
AcDbEntity
8
0
100
AcDbCircle
10
-13.466670481364062
20
-3.4000000000000075
30
-1.8231490071858814e-62
40
1.6999999999999971
210
-1.2031650703997732e-61
220
-6.6722813814446962e-48
230
1
100
AcDbArc
50
180
51
270.00000000000011
0
LINE
5
133
100
AcDbEntity
8
0
100
AcDbLine
10
-13.466670481364059
20
-5.100000000000005
30
-1.1342878348455981e-47
11
13.466662851969264
21
-5.100000000000005
31
1.5583754441435949e-76
0
ARC
5
134
100
AcDbEntity
8
0
100
AcDbCircle
10
13.466662851969266
20
-3.4000000000000052
30
3.28429327576129e-46
40
1.6999999999999993
210
-1.9721522630525289e-31
220
6.4397907367868358e-47
230
1
100
AcDbArc
50
-90.000000000000057
51
0
0
LINE
5
135
100
AcDbEntity
8
0
100
AcDbLine
10
15.166662851969265
20
-3.4000000000000035
30
3.352658847189301e-31
11
15.166662851969281
21
-4.4408920985006262e-15
31
2.0054639079044695e-61
0
LINE
5
136
100
AcDbEntity
8
0
100
AcDbLine
10
15.166662851969281
20
-4.4408920985006262e-15
30
2.0054639079044695e-61
11
30.333329518635903
21
5.3959671243955406e-14
31
-8.8903219178624742e-61
0
LINE
5
137
100
AcDbEntity
8
0
100
AcDbLine
10
30.333329518635903
20
5.3959671243955406e-14
30
-8.8903219178624742e-61
11
30.333329518635921
21
-3.4000000000000123
31
5.1758224220344954e-47
0
ARC
5
138
100
AcDbEntity
8
0
100
AcDbCircle
10
32.033329518635924
20
-3.4000000000000052
30
6.9887378608792119e-62
40
1.6999999999999993
210
3.0446014247261647e-47
220
1.5223007123630694e-47
230
1
100
AcDbArc
50
180
51
270
0
LINE
5
139
100
AcDbEntity
8
0
100
AcDbLine
10
32.033329518635924
20
-5.100000000000005
30
2.5879112110172015e-47
11
58.966662851969232
21
-5.099999999999949
31
-1.9446922743316068e-61
0
ENDSEC
0
SECTION
2
OBJECTS
0
DICTIONARY
5
C
100
AcDbDictionary
3
ACAD_GROUP
350
D
3
ACAD_MLINESTYLE
350
17
0
DICTIONARY
5
D
100
AcDbDictionary
0
DICTIONARY
5
1A
330
C
100
AcDbDictionary
0
DICTIONARY
5
17
100
AcDbDictionary
0
ENDSEC
0
EOF
