0
SECTION
2
HEADER
9
$INSUNITS
70
4
9
$ACADVER
1
AC1014
9
$HANDSEED
5
FFFF
0
ENDSEC
0
SECTION
2
TABLES
0
TABLE
2
VPORT
5
8
100
AcDbSymbolTable
0
ENDTAB
0
TABLE
2
LTYPE
5
5
100
AcDbSymbolTable
0
LTYPE
5
14
100
AcDbSymbolTableRecord
100
AcDbLinetypeTableRecord
2
BYBLOCK
70
0
0
LTYPE
5
15
100
AcDbSymbolTableRecord
100
AcDbLinetypeTableRecord
2
BYLAYER
70
0
0
ENDTAB
0
TABLE
2
LAYER
5
2
100
AcDbSymbolTable
70
2
0
LAYER
5
50
100
AcDbSymbolTableRecord
100
AcDbLayerTableRecord
2
0
70
0
6
CONTINUOUS
0
ENDTAB
0
TABLE
2
STYLE
5
3
100
AcDbSymbolTable
70
1
0
STYLE
5
11
100
AcDbSymbolTableRecord
100
AcDbTextStyleTableRecord
2
STANDARD
70
0
0
ENDTAB
0
TABLE
2
VIEW
5
6
100
AcDbSymbolTable
70
0
0
ENDTAB
0
TABLE
2
UCS
5
7
100
AcDbSymbolTable
70
0
0
ENDTAB
0
TABLE
2
APPID
5
9
100
AcDbSymbolTable
70
2
0
APPID
5
12
100
AcDbSymbolTableRecord
100
AcDbRegAppTableRecord
2
ACAD
70
0
0
ENDTAB
0
TABLE
2
DIMSTYLE
5
A
100
AcDbSymbolTable
70
1
0
ENDTAB
0
TABLE
2
BLOCK_RECORD
5
1
100
AcDbSymbolTable
70
1
0
BLOCK_RECORD
5
1F
100
AcDbSymbolTableRecord
100
AcDbBlockTableRecord
2
*MODEL_SPACE
0
BLOCK_RECORD
5
1B
100
AcDbSymbolTableRecord
100
AcDbBlockTableRecord
2
*PAPER_SPACE
0
ENDTAB
0
ENDSEC
0
SECTION
2
BLOCKS
0
BLOCK
5
20
100
AcDbEntity
100
AcDbBlockBegin
2
*MODEL_SPACE
0
ENDBLK
5
21
100
AcDbEntity
100
AcDbBlockEnd
0
BLOCK
5
1C
100
AcDbEntity
100
AcDbBlockBegin
2
*PAPER_SPACE
0
ENDBLK
5
1D
100
AcDbEntity
100
AcDbBlockEnd
0
ENDSEC
0
SECTION
2
ENTITIES
0
CIRCLE
5
100
100
AcDbEntity
8
0
100
AcDbCircle
10
13.54999999999983
20
15.550000000001045
30
0
40
1.5500000000000003
210
-4.2283433491461105e-142
220
-2.4308653429145085e-63
230
1
0
SPLINE
5
101
100
AcDbEntity
8
0
100
AcDbSpline
70
0
71
3
72
24
73
20
74
0
42
0.000000001
43
0.0000000001
44
0.0000000001
40
-11.641621254271655
40
-11.641621254271655
40
-11.641621254271655
40
-11.641621254271655
40
-9.5634603649615091
40
-9.5634603649615091
40
-8.6254901183167831
40
-8.6254901183167831
40
-7.9160972320171643
40
-7.9160972320171643
40
-7.1850275282010712
40
-7.1850275282010712
40
-6.004531614256182
40
-6.004531614256182
40
-5.0358402503864115
40
-5.0358402503864115
40
-4.0855336585943318
40
-4.0855336585943318
40
-2.797383811947209
40
-2.797383811947209
40
0
40
0
40
0
40
0
10
-72.866929099348454
20
-64.199999999999648
30
0
10
-74.559489733656591
20
-62.814410344372781
30
0
10
-75.732885099061761
20
-61.606090907827465
30
0
10
-76.768578742868499
20
-60.029657646842942
30
0
10
-77.047464417386252
20
-59.487476843187324
30
0
10
-77.307099971240504
20
-58.486204774165699
30
0
10
-77.341215808685021
20
-58.051052911189096
30
0
10
-77.213940687840335
20
-57.154747736650691
30
0
10
-77.051377956135923
20
-56.729181276964894
30
0
10
-76.454179698359738
20
-55.690937230222993
30
0
10
-75.913654350502057
20
-55.123618112412174
30
0
10
-74.938081484540149
20
-54.339915389316701
30
0
10
-74.366292486824634
20
-53.967615991204916
30
0
10
-72.985886524883767
20
-53.469392622264792
30
0
10
-72.289577668240639
20
-53.379022621275993
30
0
10
-70.581268009602695
20
-53.46451319398551
30
0
10
-69.452956576641256
20
-53.751036632683331
30
0
10
-65.130774147660674
20
-55.605222973048981
30
0
10
-60.783597693774006
20
-58.401701072870218
30
0
10
-53.480986402071522
20
-64.199999999999378
30
0
0
SPLINE
5
102
100
AcDbEntity
8
0
100
AcDbSpline
70
0
71
3
72
24
73
20
74
0
42
0.000000001
43
0.0000000001
44
0.0000000001
40
-3.3946595681053848
40
-3.3946595681053848
40
-3.3946595681053848
40
-3.3946595681053848
40
-2.4940681937923554
40
-2.4940681937923554
40
-2.1666667032532372
40
-2.1666667032532372
40
-1.8949848794862518
40
-1.8949848794862518
40
-1.5782584854361763
40
-1.5782584854361763
40
-1.272445746215916
40
-1.272445746215916
40
-1.0637879751175212
40
-1.0637879751175212
40
-0.85243642692559596
40
-0.85243642692559596
40
-0.58999250667683278
40
-0.58999250667683278
40
0
40
0
40
0
40
0
10
-53.480986402071522
20
-64.199999999999079
30
0
10
-60.386028131530701
20
-69.682627303084672
30
0
10
-65.01498966032193
20
-72.788744955884539
30
0
10
-69.467174965043256
20
-74.637428858179632
30
0
10
-70.473288250745171
20
-74.89878914435819
30
0
10
-72.097028786319001
20
-75.031375128217505
30
0
10
-72.811089714891409
20
-74.966274964124409
30
0
10
-74.335550470943303
20
-74.469556022750211
30
0
10
-74.996443918385083
20
-74.027527038421709
30
0
10
-75.951340222800482
20
-73.228909950515117
30
0
10
-76.396536307416426
20
-72.749958890656941
30
0
10
-76.948639557063515
20
-71.876396839542792
30
0
10
-77.12436441413081
20
-71.493962438950348
30
0
10
-77.321536544068493
20
-70.67118519212562
30
0
10
-77.335009725790115
20
-70.256212045560957
30
0
10
-77.186927550612495
20
-69.313539404169035
30
0
10
-76.979206217036804
20
-68.760242260090905
30
0
10
-75.818310664941947
20
-66.810386194735628
30
0
10
-74.388687621000443
20
-65.445765039800278
30
0
10
-72.866929099348454
20
-64.200000000000003
30
0
0
CIRCLE
5
103
100
AcDbEntity
8
0
100
AcDbCircle
10
-66.200000000000372
20
-0.6999999999990334
30
0
40
3.6500000000000021
210
-4.3476601972564941e-78
220
3.2633534740496423e-63
230
1
0
CIRCLE
5
104
100
AcDbEntity
8
0
100
AcDbCircle
10
29.799999999999713
20
-64.199999999998909
30
0
40
3.6500000000000021
210
-4.3476601972564941e-78
220
3.2633534740496423e-63
230
1
0
CIRCLE
5
105
100
AcDbEntity
8
0
100
AcDbCircle
10
-35.200000000000458
20
64.300000000001006
30
0
40
13.75
210
-8.8324451131648058e-79
220
6.6296327534032206e-64
230
1
0
CIRCLE
5
106
100
AcDbEntity
8
0
100
AcDbCircle
10
29.799999999999542
20
64.300000000001091
30
0
40
13.75
210
-8.8324451131648058e-79
220
6.6296327534032206e-64
230
1
0
CIRCLE
5
107
100
AcDbEntity
8
0
100
AcDbCircle
10
29.799999999999628
20
-0.69999999999890539
30
0
40
13.75
210
-8.8324451131648058e-79
220
6.6296327534032206e-64
230
1
0
CIRCLE
5
108
100
AcDbEntity
8
0
100
AcDbCircle
10
62.299999999999677
20
-33.199999999998859
30
0
40
13.75
210
-8.8324451131648058e-79
220
6.6296327534032206e-64
230
1
0
CIRCLE
5
109
100
AcDbEntity
8
0
100
AcDbCircle
10
29.79999999999967
20
-33.199999999998909
30
0
40
13.75
210
-8.8324451131648058e-79
220
6.6296327534032206e-64
230
1
0
CIRCLE
5
110
100
AcDbEntity
8
0
100
AcDbCircle
10
-35.200000000000372
20
-0.69999999999899198
30
0
40
13.75
210
-8.8324451131648058e-79
220
6.6296327534032206e-64
230
1
0
CIRCLE
5
111
100
AcDbEntity
8
0
100
AcDbCircle
10
-2.7000000000003697
20
-0.69999999999894869
30
0
40
13.75
210
-8.8324451131648058e-79
220
6.6296327534032206e-64
230
1
0
CIRCLE
5
112
100
AcDbEntity
8
0
100
AcDbCircle
10
62.299999999999585
20
31.800000000001138
30
0
40
13.75
210
-8.8324451131648058e-79
220
6.6296327534032206e-64
230
1
0
CIRCLE
5
113
100
AcDbEntity
8
0
100
AcDbCircle
10
-2.7000000000002853
20
-64.199999999998937
30
0
40
3.650000000000003
210
-2.3069217373198128e-78
220
1.7315753127610655e-63
230
1
0
CIRCLE
5
114
100
AcDbEntity
8
0
100
AcDbCircle
10
-66.200000000000415
20
31.800000000000963
30
0
40
3.6500000000000021
210
-4.3476601972564941e-78
220
3.2633534740496423e-63
230
1
0
CIRCLE
5
115
100
AcDbEntity
8
0
100
AcDbCircle
10
-66.20000000000033
20
-33.199999999999037
30
0
40
3.6500000000000021
210
-4.3476601972564941e-78
220
3.2633534740496423e-63
230
1
0
CIRCLE
5
116
100
AcDbEntity
8
0
100
AcDbCircle
10
62.29999999999972
20
-64.199999999998866
30
0
40
3.6500000000000021
210
-4.3476601972564941e-78
220
3.2633534740496423e-63
230
1
0
CIRCLE
5
117
100
AcDbEntity
8
0
100
AcDbCircle
10
-2.7000000000003266
20
-33.199999999998951
30
0
40
13.75
210
-8.8324451131648058e-79
220
6.6296327534032206e-64
230
1
0
CIRCLE
5
118
100
AcDbEntity
8
0
100
AcDbCircle
10
29.799999999999581
20
31.800000000001095
30
0
40
13.75
210
-8.8324451131648058e-79
220
6.6296327534032206e-64
230
1
0
CIRCLE
5
119
100
AcDbEntity
8
0
100
AcDbCircle
10
-2.7000000000004132
20
31.800000000001049
30
0
40
13.75
210
-8.8324451131648058e-79
220
6.6296327534032206e-64
230
1
0
CIRCLE
5
120
100
AcDbEntity
8
0
100
AcDbCircle
10
62.299999999999628
20
-0.69999999999886209
30
0
40
13.75
210
-8.8324451131648058e-79
220
6.6296327534032206e-64
230
1
0
CIRCLE
5
121
100
AcDbEntity
8
0
100
AcDbCircle
10
-2.7000000000004567
20
64.300000000001049
30
0
40
13.75
210
-8.8324451131648058e-79
220
6.6296327534032206e-64
230
1
0
CIRCLE
5
122
100
AcDbEntity
8
0
100
AcDbCircle
10
62.299999999999542
20
64.300000000001134
30
0
40
13.75
210
-8.8324451131648058e-79
220
6.6296327534032206e-64
230
1
0
CIRCLE
5
123
100
AcDbEntity
8
0
100
AcDbCircle
10
-35.20000000000033
20
-33.199999999998994
30
0
40
13.75
210
-8.8324451131648058e-79
220
6.6296327534032206e-64
230
1
0
CIRCLE
5
124
100
AcDbEntity
8
0
100
AcDbCircle
10
-35.200000000000415
20
31.800000000001006
30
0
40
13.75
210
-8.8324451131648058e-79
220
6.6296327534032206e-64
230
1
0
CIRCLE
5
125
100
AcDbEntity
8
0
100
AcDbCircle
10
-35.200000000000287
20
-64.199999999998994
30
0
40
3.6500000000000021
210
-4.3476601972564941e-78
220
3.2633534740496423e-63
230
1
0
CIRCLE
5
126
100
AcDbEntity
8
0
100
AcDbCircle
10
-66.200000000000458
20
64.300000000000963
30
0
40
3.6500000000000021
210
-4.3476601972564941e-78
220
3.2633534740496423e-63
230
1
0
LWPOLYLINE
5
127
100
AcDbEntity
8
0
100
AcDbPolyline
90
8
70
1
43
0.0
10
-91.389999999997102
20
-92.79000000000002
42
-0.41421356237308588
10
-94.789999999997093
20
-89.390000000000086
10
-94.790000000000504
20
89.389999999999944
42
-0.41421356237309809
10
-91.390000000000512
20
92.79000000000002
10
91.389999999999375
20
92.789999999999964
42
-0.41421356237309509
10
94.789999999999367
20
89.389999999999958
10
94.789999999997548
20
-89.390000000000043
42
-0.41421356237309043
10
91.389999999997556
20
-92.789999999999992
0
LWPOLYLINE
5
128
100
AcDbEntity
8
0
100
AcDbPolyline
90
4
70
1
43
0.0
10
15.166666666666877
20
89.000000000000085
10
-15.166666666666366
20
89.000000000000057
10
-15.16666666666641
20
85.200000000000117
10
15.166666666666922
20
85.200000000000088
0
LWPOLYLINE
5
129
100
AcDbEntity
8
0
100
AcDbPolyline
90
4
70
1
43
0.0
10
-91.000000000000313
20
47.466666666666725
10
-91.000000000000298
20
11.866666666666719
10
-87.200000000000287
20
11.866666666666728
10
-87.200000000000429
20
47.466666666666754
0
LWPOLYLINE
5
130
100
AcDbEntity
8
0
100
AcDbPolyline
90
4
70
1
43
0.0
10
87.20000000000033
20
-47.466666666665716
10
91.000000000000426
20
-47.466666666665667
10
90.999999999999972
20
-11.866666666665662
10
87.199999999999903
20
-11.866666666665679
0
CIRCLE
5
131
100
AcDbEntity
8
0
100
AcDbCircle
10
89.449999999998781
20
-87.449999999999832
30
0
40
1.5499999999999934
210
1.3684555315672045e-48
220
2.430865342914509e-63
230
1
0
CIRCLE
5
132
100
AcDbEntity
8
0
100
AcDbCircle
10
89.449999999998809
20
87.450000000000117
30
0
40
1.5499999999999934
210
1.3684555315672045e-48
220
2.430865342914509e-63
230
1
0
LWPOLYLINE
5
133
100
AcDbEntity
8
0
100
AcDbPolyline
90
4
70
1
43
0.0
10
60.666666666666245
20
-85.199999999999392
10
30.333333333333734
20
-85.199999999999562
10
30.33333333333383
20
-88.999999999999559
10
60.666666666667112
20
-88.999999999999275
0
LWPOLYLINE
5
134
100
AcDbEntity
8
0
100
AcDbPolyline
90
4
70
1
43
0.0
10
15.16666666666687
20
-85.199999999999889
10
-15.166666666666444
20
-85.199999999999889
10
-15.166666666666464
20
-88.999999999999844
10
15.166666666666869
20
-88.999999999999886
0
LWPOLYLINE
5
135
100
AcDbEntity
8
0
100
AcDbPolyline
90
4
70
1
43
0.0
10
90.999999999999773
20
11.86666666666758
10
90.999999999999389
20
47.466666666667543
10
87.199999999999562
20
47.466666666667521
10
87.199999999999761
20
11.866666666667509
0
CIRCLE
5
136
100
AcDbEntity
8
0
100
AcDbCircle
10
-89.450000000000074
20
87.450000000000102
30
0
40
1.5499999999999934
210
1.3684555315672045e-48
220
2.430865342914509e-63
230
1
0
LWPOLYLINE
5
137
100
AcDbEntity
8
0
100
AcDbPolyline
90
4
70
1
43
0.0
10
-60.666666666666636
20
89.000000000000057
10
-60.666666666665918
20
85.200000000000173
10
-30.333333333333382
20
85.200000000000074
10
-30.333333333333346
20
89.000000000000071
0
LWPOLYLINE
5
138
100
AcDbEntity
8
0
100
AcDbPolyline
90
4
70
1
43
0.0
10
-87.200000000000472
20
-47.466666666666519
10
-87.200000000000202
20
-11.866666666666497
10
-91.000000000000284
20
-11.866666666666497
10
-91.000000000000384
20
-47.466666666666484
0
LWPOLYLINE
5
139
100
AcDbEntity
8
0
100
AcDbPolyline
90
4
70
1
43
0.0
10
-30.333333333333421
20
-85.199999999999847
10
-60.666666666665975
20
-85.199999999999932
10
-60.666666666666728
20
-88.999999999999801
10
-30.3333333333334
20
-88.999999999999844
0
CIRCLE
5
140
100
AcDbEntity
8
0
100
AcDbCircle
10
-89.45000000000006
20
-87.449999999999903
30
0
40
1.5500000000000114
210
0
220
-0
230
1
0
LWPOLYLINE
5
141
100
AcDbEntity
8
0
100
AcDbPolyline
90
4
70
1
43
0.0
10
60.666666666666316
20
85.199999999999562
10
60.666666666667133
20
88.999999999999432
10
30.333333333333812
20
88.999999999999773
10
30.333333333333783
20
85.19999999999979
0
ENDSEC
0
SECTION
2
OBJECTS
0
DICTIONARY
5
C
100
AcDbDictionary
3
ACAD_GROUP
350
D
3
ACAD_MLINESTYLE
350
17
0
DICTIONARY
5
D
100
AcDbDictionary
0
DICTIONARY
5
1A
330
C
100
AcDbDictionary
0
DICTIONARY
5
17
100
AcDbDictionary
0
ENDSEC
0
EOF
