0
SECTION
2
HEADER
9
$INSUNITS
70
4
9
$ACADVER
1
AC1014
9
$HANDSEED
5
FFFF
0
ENDSEC
0
SECTION
2
TABLES
0
TABLE
2
VPORT
5
8
100
AcDbSymbolTable
0
ENDTAB
0
TABLE
2
LTYPE
5
5
100
AcDbSymbolTable
0
LTYPE
5
14
100
AcDbSymbolTableRecord
100
AcDbLinetypeTableRecord
2
BYBLOCK
70
0
0
LTYPE
5
15
100
AcDbSymbolTableRecord
100
AcDbLinetypeTableRecord
2
BYLAYER
70
0
0
ENDTAB
0
TABLE
2
LAYER
5
2
100
AcDbSymbolTable
70
2
0
LAYER
5
50
100
AcDbSymbolTableRecord
100
AcDbLayerTableRecord
2
0
70
0
6
CONTINUOUS
0
ENDTAB
0
TABLE
2
STYLE
5
3
100
AcDbSymbolTable
70
1
0
STYLE
5
11
100
AcDbSymbolTableRecord
100
AcDbTextStyleTableRecord
2
STANDARD
70
0
0
ENDTAB
0
TABLE
2
VIEW
5
6
100
AcDbSymbolTable
70
0
0
ENDTAB
0
TABLE
2
UCS
5
7
100
AcDbSymbolTable
70
0
0
ENDTAB
0
TABLE
2
APPID
5
9
100
AcDbSymbolTable
70
2
0
APPID
5
12
100
AcDbSymbolTableRecord
100
AcDbRegAppTableRecord
2
ACAD
70
0
0
ENDTAB
0
TABLE
2
DIMSTYLE
5
A
100
AcDbSymbolTable
70
1
0
ENDTAB
0
TABLE
2
BLOCK_RECORD
5
1
100
AcDbSymbolTable
70
1
0
BLOCK_RECORD
5
1F
100
AcDbSymbolTableRecord
100
AcDbBlockTableRecord
2
*MODEL_SPACE
0
BLOCK_RECORD
5
1B
100
AcDbSymbolTableRecord
100
AcDbBlockTableRecord
2
*PAPER_SPACE
0
ENDTAB
0
ENDSEC
0
SECTION
2
BLOCKS
0
BLOCK
5
20
100
AcDbEntity
100
AcDbBlockBegin
2
*MODEL_SPACE
0
ENDBLK
5
21
100
AcDbEntity
100
AcDbBlockEnd
0
BLOCK
5
1C
100
AcDbEntity
100
AcDbBlockBegin
2
*PAPER_SPACE
0
ENDBLK
5
1D
100
AcDbEntity
100
AcDbBlockEnd
0
ENDSEC
0
SECTION
2
ENTITIES
0
CIRCLE
5
100
100
AcDbEntity
8
0
100
AcDbCircle
10
-66.199999999999775
20
31.800000000001024
30
0
40
7.9999999999999982
210
-1.1426387127000994e-32
220
1.4417259983322393e-64
230
1
0
CIRCLE
5
101
100
AcDbEntity
8
0
100
AcDbCircle
10
-35.199999999999775
20
-64.19999999999898
30
0
40
7.9999999999999982
210
-1.1426387127000994e-32
220
1.4417259983322393e-64
230
1
0
CIRCLE
5
102
100
AcDbEntity
8
0
100
AcDbCircle
10
-2.6999999999997746
20
-64.19999999999898
30
0
40
8
210
-1.1426387127000994e-32
220
-2.190849313085666e-65
230
1
0
CIRCLE
5
103
100
AcDbEntity
8
0
100
AcDbCircle
10
-66.199999999999775
20
64.30000000000102
30
0
40
7.9999999999999982
210
-1.1426387127000994e-32
220
1.4417259983322393e-64
230
1
0
CIRCLE
5
104
100
AcDbEntity
8
0
100
AcDbCircle
10
-66.199999999999775
20
-0.69999999999897722
30
0
40
7.9999999999999982
210
-1.1426387127000994e-32
220
1.1121892886635641e-64
230
1
0
CIRCLE
5
105
100
AcDbEntity
8
0
100
AcDbCircle
10
29.800000000000221
20
-64.19999999999898
30
0
40
7.9999999999999982
210
-1.1426387127000994e-32
220
1.0923687969418608e-64
230
1
0
CIRCLE
5
106
100
AcDbEntity
8
0
100
AcDbCircle
10
62.300000000000225
20
-64.19999999999898
30
0
40
7.9999999999999982
210
-1.1426387127000994e-32
220
1.4417259983322393e-64
230
1
0
CIRCLE
5
107
100
AcDbEntity
8
0
100
AcDbCircle
10
-66.199999999999775
20
-33.19999999999898
30
0
40
7.9999999999999982
210
-1.1426387127000994e-32
220
1.4417259983322393e-64
230
1
0
CIRCLE
5
108
100
AcDbEntity
8
0
100
AcDbCircle
10
13.55000000000021
20
15.550000000001006
30
0
40
1.5500000000000003
210
-1.1426387127000994e-32
220
-1.4076379168984644e-65
230
1
0
LWPOLYLINE
5
109
100
AcDbEntity
8
0
100
AcDbPolyline
90
8
70
1
43
0.0
10
-94.790000000000873
20
89.389999999999986
42
-0.41421356237310114
10
-91.390000000000924
20
92.790000000000035
10
91.389999999998992
20
92.789999999999992
42
-0.41421356237309659
10
94.789999999999026
20
89.390000000000001
10
94.789999999997946
20
-89.390000000000072
42
-0.41421356237309198
10
91.389999999997997
20
-92.79000000000002
10
-91.389999999996689
20
-92.79000000000002
42
-0.41421356237309198
10
-94.789999999996724
20
-89.390000000000128
0
LWPOLYLINE
5
110
100
AcDbEntity
8
0
100
AcDbPolyline
90
4
70
1
43
0.0
10
-91.000000000000199
20
-47.466666666666484
10
-87.200000000000273
20
-47.466666666666519
10
-87.200000000000145
20
-11.866666666666479
10
-91.000000000000227
20
-11.866666666666479
0
CIRCLE
5
111
100
AcDbEntity
8
0
100
AcDbCircle
10
62.299999999999841
20
-33.199999999998944
30
0
40
12.050000000000001
210
-1.3684555315672042e-48
220
-3.945455747407848e-96
230
1
0
LWPOLYLINE
5
112
100
AcDbEntity
8
0
100
AcDbPolyline
90
4
70
1
43
0.0
10
-30.333333333333012
20
-88.999999999999858
10
-30.333333333333066
20
-85.199999999999875
10
-60.666666666665627
20
-85.199999999999946
10
-60.666666666666352
20
-88.999999999999829
0
CIRCLE
5
113
100
AcDbEntity
8
0
100
AcDbCircle
10
29.799999999999844
20
64.300000000001049
30
0
40
12.050000000000001
210
-1.3684555315672042e-48
220
-3.945455747407848e-96
230
1
0
CIRCLE
5
114
100
AcDbEntity
8
0
100
AcDbCircle
10
29.799999999999844
20
31.800000000001059
30
0
40
12.050000000000001
210
-1.3684555315672042e-48
220
-3.945455747407848e-96
230
1
0
CIRCLE
5
115
100
AcDbEntity
8
0
100
AcDbCircle
10
29.799999999999844
20
-0.69999999999894036
30
0
40
12.050000000000001
210
-1.3684555315672042e-48
220
-3.945455747407848e-96
230
1
0
CIRCLE
5
116
100
AcDbEntity
8
0
100
AcDbCircle
10
-35.200000000000159
20
31.800000000001059
30
0
40
12.050000000000001
210
-1.3684555315672042e-48
220
-3.945455747407848e-96
230
1
0
CIRCLE
5
117
100
AcDbEntity
8
0
100
AcDbCircle
10
62.299999999999841
20
-0.69999999999894036
30
0
40
12.050000000000001
210
-1.3684555315672042e-48
220
-3.945455747407848e-96
230
1
0
CIRCLE
5
118
100
AcDbEntity
8
0
100
AcDbCircle
10
62.299999999999841
20
31.800000000001059
30
0
40
12.050000000000001
210
-1.3684555315672042e-48
220
-3.945455747407848e-96
230
1
0
CIRCLE
5
119
100
AcDbEntity
8
0
100
AcDbCircle
10
-2.7000000000001556
20
31.800000000001059
30
0
40
12.049999999999997
210
-0
220
0
230
1
0
CIRCLE
5
120
100
AcDbEntity
8
0
100
AcDbCircle
10
89.449999999999193
20
-87.449999999999847
30
0
40
1.5499999999999934
210
1.3684555315672045e-48
220
-8.6361685550944465e-78
230
1
0
CIRCLE
5
121
100
AcDbEntity
8
0
100
AcDbCircle
10
-35.200000000000159
20
64.300000000001049
30
0
40
12.050000000000001
210
-1.3684555315672042e-48
220
-3.945455747407848e-96
230
1
0
CIRCLE
5
122
100
AcDbEntity
8
0
100
AcDbCircle
10
-2.7000000000001556
20
-0.69999999999894036
30
0
40
12.049999999999997
210
-0
220
0
230
1
0
LWPOLYLINE
5
123
100
AcDbEntity
8
0
100
AcDbPolyline
90
4
70
1
43
0.0
10
30.333333333333456
20
85.199999999999804
10
60.666666666665989
20
85.199999999999591
10
60.666666666666785
20
88.99999999999946
10
30.333333333333456
20
88.999999999999787
0
CIRCLE
5
124
100
AcDbEntity
8
0
100
AcDbCircle
10
-35.200000000000159
20
-0.69999999999894036
30
0
40
12.050000000000001
210
-1.3684555315672042e-48
220
-3.945455747407848e-96
230
1
0
CIRCLE
5
125
100
AcDbEntity
8
0
100
AcDbCircle
10
62.299999999999841
20
64.300000000001049
30
0
40
12.050000000000001
210
-1.3684555315672042e-48
220
-3.945455747407848e-96
230
1
0
LWPOLYLINE
5
126
100
AcDbEntity
8
0
100
AcDbPolyline
90
4
70
1
43
0.0
10
15.166666666667261
20
-88.999999999999901
10
15.166666666667243
20
-85.199999999999903
10
-15.16666666666608
20
-85.199999999999903
10
-15.16666666666608
20
-88.999999999999858
0
LWPOLYLINE
5
127
100
AcDbEntity
8
0
100
AcDbPolyline
90
4
70
1
43
0.0
10
87.199999999999989
20
-11.866666666665662
10
87.200000000000557
20
-47.466666666665716
10
91.000000000000654
20
-47.466666666665667
10
91.000000000000057
20
-11.866666666665662
0
CIRCLE
5
128
100
AcDbEntity
8
0
100
AcDbCircle
10
-89.449999999999676
20
-87.449999999999918
30
0
40
1.5500000000000114
210
-1.3684555315672042e-48
220
-3.9454557474078488e-96
230
1
0
LWPOLYLINE
5
129
100
AcDbEntity
8
0
100
AcDbPolyline
90
4
70
1
43
0.0
10
87.199999999999733
20
11.866666666667527
10
90.999999999999773
20
11.866666666667589
10
90.999999999999233
20
47.466666666667557
10
87.199999999999392
20
47.466666666667543
0
LWPOLYLINE
5
130
100
AcDbEntity
8
0
100
AcDbPolyline
90
4
70
1
43
0.0
10
-87.200000000000628
20
47.466666666666768
10
-91.000000000000512
20
47.46666666666674
10
-91.000000000000355
20
11.866666666666728
10
-87.200000000000344
20
11.866666666666736
0
CIRCLE
5
131
100
AcDbEntity
8
0
100
AcDbCircle
10
-2.7000000000001556
20
-33.199999999998944
30
0
40
12.049999999999997
210
-0
220
0
230
1
0
CIRCLE
5
132
100
AcDbEntity
8
0
100
AcDbCircle
10
-89.450000000000443
20
87.450000000000117
30
0
40
1.5499999999999934
210
1.3684555315672045e-48
220
-8.6361685550944465e-78
230
1
0
CIRCLE
5
133
100
AcDbEntity
8
0
100
AcDbCircle
10
89.449999999998482
20
87.450000000000131
30
0
40
1.5499999999999934
210
1.3684555315672045e-48
220
-8.6361685550944465e-78
230
1
0
LWPOLYLINE
5
134
100
AcDbEntity
8
0
100
AcDbPolyline
90
4
70
1
43
0.0
10
60.666666666667517
20
-88.999999999999289
10
60.666666666666629
20
-85.199999999999406
10
30.333333333334114
20
-85.199999999999591
10
30.33333333333422
20
-88.999999999999574
0
CIRCLE
5
135
100
AcDbEntity
8
0
100
AcDbCircle
10
-35.200000000000159
20
-33.199999999998944
30
0
40
12.050000000000001
210
-1.3684555315672042e-48
220
-3.945455747407848e-96
230
1
0
LWPOLYLINE
5
136
100
AcDbEntity
8
0
100
AcDbPolyline
90
4
70
1
43
0.0
10
-30.333333333333723
20
89.000000000000085
10
-60.66666666666702
20
89.000000000000071
10
-60.666666666666281
20
85.200000000000188
10
-30.333333333333741
20
85.200000000000088
0
CIRCLE
5
137
100
AcDbEntity
8
0
100
AcDbCircle
10
-2.7000000000001556
20
64.300000000001049
30
0
40
12.049999999999997
210
-0
220
0
230
1
0
LWPOLYLINE
5
138
100
AcDbEntity
8
0
100
AcDbPolyline
90
4
70
1
43
0.0
10
15.166666666666586
20
85.200000000000102
10
15.166666666666515
20
89.000000000000114
10
-15.166666666666737
20
89.000000000000071
10
-15.166666666666764
20
85.200000000000131
0
CIRCLE
5
139
100
AcDbEntity
8
0
100
AcDbCircle
10
29.799999999999844
20
-33.199999999998944
30
0
40
12.050000000000001
210
-1.3684555315672042e-48
220
-3.945455747407848e-96
230
1
0
ENDSEC
0
SECTION
2
OBJECTS
0
DICTIONARY
5
C
100
AcDbDictionary
3
ACAD_GROUP
350
D
3
ACAD_MLINESTYLE
350
17
0
DICTIONARY
5
D
100
AcDbDictionary
0
DICTIONARY
5
1A
330
C
100
AcDbDictionary
0
DICTIONARY
5
17
100
AcDbDictionary
0
ENDSEC
0
EOF
